<?xml version="1.0" encoding="utf-8"?>
<!-- Generator: Adobe Illustrator 15.1.0, SVG Export Plug-In . SVG Version: 6.00 Build 0)  -->
<!DOCTYPE svg PUBLIC "-//W3C//DTD SVG 1.1//EN" "http://www.w3.org/Graphics/SVG/1.1/DTD/svg11.dtd">
<svg version="1.1"
	 id="svg2996" xmlns:inkscape="http://www.inkscape.org/namespaces/inkscape" sodipodi:docname="diagram1.png" inkscape:version="0.48.2 r9819" xmlns:sodipodi="http://sodipodi.sourceforge.net/DTD/sodipodi-0.dtd" xmlns:rdf="http://www.w3.org/1999/02/22-rdf-syntax-ns#" xmlns:svg="http://www.w3.org/2000/svg" xmlns:cc="http://creativecommons.org/ns#" xmlns:dc="http://purl.org/dc/elements/1.1/"
	 xmlns="http://www.w3.org/2000/svg" xmlns:xlink="http://www.w3.org/1999/xlink" x="0px" y="0px" width="657px" height="611px"
	 viewBox="0 0 657 611" enable-background="new 0 0 657 611" xml:space="preserve">
<sodipodi:namedview  pagecolor="#ffffff" bordercolor="#666666" id="base" borderopacity="1.0" inkscape:pageopacity="0.0" inkscape:zoom="0.80904371" inkscape:pageshadow="2" inkscape:cx="349.7074" inkscape:cy="324.2637" inkscape:document-units="px" inkscape:current-layer="layer1" showgrid="false" inkscape:window-width="1112" inkscape:window-height="756" inkscape:window-x="20" inkscape:window-y="3" inkscape:window-maximized="0" fit-margin-top="0" fit-margin-left="0" fit-margin-right="0" fit-margin-bottom="0">
	</sodipodi:namedview>
<g id="layer1" transform="translate(-0.80973703,-0.35944802)" inkscape:label="Layer 1" inkscape:groupmode="layer">
	
		<image overflow="visible" enable-background="new    " width="657" height="611" id="image3042" xlink:href="A0E0EED5.png"  transform="matrix(1 0 0 1 0.81 0.3594)">
	</image>
	<path id="path3059" inkscape:connector-curvature="0" fill="#0000FF" stroke="#0000DC" d="M131.881,301.359h97.5"/>
	<path id="path3831" inkscape:connector-curvature="0" fill="none" stroke="#0000C4" d="M131.166,301.359l9.286-8.929"/>
	<path id="path3833" inkscape:connector-curvature="0" fill="none" stroke="#0000C3" d="M131.166,301.359l8.215,7.5"/>
	<path id="path3835" inkscape:connector-curvature="0" fill="none" stroke="#0000C7" d="M229.381,301.002l-8.215-9.643"/>
	<path id="path3841" inkscape:connector-curvature="0" fill="none" stroke="#0000C2" d="M229.024,302.074l-7.5,6.786"/>
	<text transform="matrix(1 0 0 1 180.0951 287.7881)" fill="#0000FF" font-family="'TimesNewRomanPSMT'" font-size="32">5</text>
	<path id="path3847" inkscape:connector-curvature="0" fill="#0000FF" stroke="#0000C2" d="M331.634,499.237l-0.505,96.47"/>
	<path id="path3849" inkscape:connector-curvature="0" fill="none" stroke="#0000C0" d="M332.134,498.237l-7.07,9.092"/>
	<path id="path3851" inkscape:connector-curvature="0" fill="none" stroke="#0000C1" d="M331.129,498.242l7.576,7.071"/>
	<path id="path3853" inkscape:connector-curvature="0" fill="none" stroke="#0000BE" d="M330.629,596.197l7.071-8.587"/>
	<path id="path3855" inkscape:connector-curvature="0" fill="none" stroke="#0000C2" d="M330.624,595.697l-8.586-8.082"/>
	<text transform="matrix(1 0 0 1 292.8603 555.6641)" fill="#0000FF" font-family="'TimesNewRomanPSMT'" font-size="32">5</text>
	<text transform="matrix(0.9322 0 0 1 325.4799 324.6475)" font-family="'TimesNewRomanPSMT'" font-size="17.157">(-2,4)</text>
	<text transform="matrix(1 0 0 1 203.3095 156.8594)" font-family="'TimesNewRomanPSMT'" font-size="10">(x+2) + (y-4)  = 100</text>
	<text transform="matrix(1 0 0 1 224.9623 150.3262)" font-family="'TimesNewRomanPSMT'" font-size="6">2</text>
	<text transform="matrix(1 0 0 1 256.4286 151.0333)" font-family="'TimesNewRomanPSMT'" font-size="8">2</text>
	
		<path id="path3938" sodipodi:type="arc" sodipodi:cy="302" sodipodi:cx="364" sodipodi:rx="197" sodipodi:ry="197" fill="none" stroke="#0000C2" stroke-width="4" d="
		M534.143,301.859c0,108.801-90.178,197-201.417,197s-201.416-88.199-201.416-197c0-108.8,90.177-197,201.416-197
		S534.143,193.059,534.143,301.859z"/>
	<path id="path3977" inkscape:connector-curvature="0" fill="none" stroke="#0000FF" d="M331.061,301.58
		c-0.204-0.714-0.155-0.354-0.155-1.082c0-0.728-0.066-0.336,0.155-0.927c0.028-0.076,0.02-0.174,0.077-0.231
		c0.036-0.037,0.108,0.023,0.154,0c0.022-0.012-0.025-0.077,0-0.077s-0.019,0.059,0,0.077c0.019,0.018,0.056-0.015,0.077,0
		c0.061,0.04,0.103,0.103,0.154,0.154c0.19,0.19,0.246,0.206,0.31,0.541c0.129,0.687,0.092,1.408-0.077,2.086
		c-0.125,0.496-0.646,1.451-0.928,1.854c-0.156,0.225-0.355,0.417-0.54,0.618c-0.099,0.107-0.182,0.238-0.31,0.309
		c-0.114,0.064-0.258,0.049-0.386,0.077c-0.207,0.046-0.399,0.132-0.618,0.077c-0.025-0.006,0-0.051,0-0.077s0-0.051,0-0.077
		c0-0.354-0.033-0.398,0.154-0.772c0.367-0.735,0.343-0.542,0.927-1.082c0.58-0.535,0.295-0.393,0.928-0.772
		c0.099-0.06,0.199-0.118,0.309-0.154c0.338-0.113,0.564-0.078,0.927-0.078c0.232,0,0.464,0,0.695,0c0.077,0,0.157-0.019,0.231,0
		c0.152,0.038,0.109,0.432,0.078,0.541c-0.063,0.221-0.189,0.421-0.31,0.618c-0.309,0.505-0.688,1.02-1.159,1.391
		c-0.263,0.208-0.532,0.43-0.85,0.541c-0.219,0.077-0.463,0-0.695,0c-0.154,0-0.316,0.049-0.463,0
		c-0.43-0.143-0.604-0.462-0.772-0.85c-0.288-0.659-0.381-1.38-0.464-2.086c-0.061-0.52-0.111-0.798-0.077-1.313
		c0.012-0.182,0.007-0.373,0.077-0.541c0.138-0.331,0.454-0.512,0.772-0.618c0.321-0.107,0.676-0.077,1.005-0.077
		c0.154,0,0.314-0.041,0.463,0c0.2,0.054,0.629,0.425,0.772,0.541c0.528,0.423,0.27,0.192,0.772,0.695
		c0.077,0.077,0.169,0.143,0.232,0.232c0.138,0.193,0.286,0.66,0.309,0.85c0.058,0.492,0.014,1.099-0.231,1.545
		c-0.159,0.289-0.393,0.533-0.618,0.772c-0.21,0.223-0.809,0.75-1.159,0.85c-0.173,0.049-0.36,0-0.54,0
		c-0.155,0-0.328,0.074-0.464,0c-0.177-0.097-0.292-0.286-0.387-0.464c-0.312-0.587-0.231-0.822-0.231-1.468
		c0-0.309,0-0.618,0-0.927c0-0.283-0.013-0.567,0-0.85c0.013-0.284,0.012-0.573,0.077-0.85c0.119-0.498,0.408-0.975,0.695-1.39
		c0.094-0.136,0.174-0.292,0.31-0.387c0.133-0.093,0.305-0.115,0.463-0.154c0.377-0.094,0.431-0.077,0.772-0.077
		c0.181,0,0.366-0.044,0.541,0c0.146,0.036,0.268,0.14,0.387,0.231c0.114,0.089,0.225,0.19,0.309,0.309
		c0.251,0.359,0.436,1.045,0.541,1.468c0.103,0.41,0.077,0.355,0.077,0.772c0,0.103,0.036,0.212,0,0.309
		c-0.045,0.121-0.141,0.218-0.231,0.309c-0.32,0.32-0.55,0.419-1.005,0.541c-0.176,0.047-0.361,0.047-0.541,0.078
		c-0.425,0.071-0.411,0.166-0.85-0.078c-0.096-0.053-0.171-0.141-0.231-0.231c-0.264-0.396-0.283-0.597-0.309-1.082
		c-0.026-0.49-0.025-1.23,0.154-1.7c0.204-0.537,0.537-0.924,1.004-1.236c0.3-0.2,0.758-0.208,1.082-0.232
		c0.172-0.012,0.71-0.006,0.85,0.077c0.071,0.043,0.458,0.601,0.541,0.695c0.006,0.007,0.615,0.614,0.617,0.618
		c0.069,0.092,0.099,0.208,0.155,0.309c0.154,0.278,0.313,0.457,0.386,0.772c0.094,0.404,0.077,0.623,0.077,1.004
		c0,0.154,0,0.309,0,0.463c0,0.077,0.016,0.156,0,0.232c-0.048,0.238-0.427,0.404-0.618,0.541c-0.081,0.058-0.419,0.326-0.54,0.386
		c-0.073,0.037-0.159,0.041-0.232,0.077c-0.032,0.017-0.042,0.066-0.077,0.077c-0.035,0.012-0.343,0-0.386,0
		c-0.32,0-0.699,0.037-1.005-0.077c-0.068-0.025-0.098-0.109-0.154-0.154c-0.072-0.058-0.172-0.083-0.231-0.155
		c-0.074-0.088-0.104-0.206-0.154-0.309c-0.078-0.154-0.142-0.316-0.232-0.463C331.33,301.932,331.089,301.8,331.061,301.58
		c-0.054-0.412,0.124-0.822,0.154-1.236c0.021-0.282,0-0.566,0-0.85c0-0.257,0-0.515,0-0.772c0-0.058-0.046-0.39,0.077-0.463
		c0.091-0.055,0.203-0.068,0.309-0.078c0.18-0.016,0.368-0.049,0.541,0c0.326,0.093,0.864,0.556,1.082,0.773
		c0.295,0.295,0.729,0.832,0.85,1.236c0.109,0.366,0.077,1.633,0.077,1.931c0,0.309,0,0.618,0,0.927
		c0,0.581,0.078,0.879-0.154,1.391c-0.054,0.117-0.148,0.211-0.232,0.309c-0.188,0.22-0.309,0.33-0.617,0.386
		c-0.203,0.037-0.412,0-0.618,0c-0.134,0-0.312,0.073-0.387-0.077c-0.036-0.073-0.058-0.153-0.077-0.232
		c-0.133-0.531-0.077-0.542-0.077-1.236c0-0.232,0-0.464,0-0.695c0-0.559-0.067-1.091,0.154-1.623
		c0.042-0.101,0.16-0.149,0.232-0.232c0.074-0.085,0.393-0.525,0.54-0.618c0.118-0.074,0.254-0.115,0.387-0.155
		c0.063-0.019,0.587-0.139,0.695-0.077c0.111,0.064,0.187,0.188,0.231,0.309c0.319,0.851,0.231,1.09,0.231,2.009
		c0,0.552,0.051,1.013-0.231,1.545c-0.094,0.178-0.289,0.287-0.464,0.386c-0.457,0.262-0.872,0.282-1.39,0.309
		c-0.428,0.022-1.069,0.02-1.468-0.155c-0.185-0.081-0.307-0.26-0.464-0.386c-1.133-0.906,0.74,0.658-0.695-0.618
		c-0.16-0.143-0.518-0.341-0.618-0.541c-0.07-0.14-0.069-0.307-0.077-0.463c-0.018-0.334,0-0.669,0-1.004
		c0-0.283-0.035-0.568,0-0.85c0.043-0.341,0.133-0.675,0.231-1.004c0.032-0.107,0.38-0.887,0.464-1.004
		c0.105-0.147,0.182-0.035,0.309-0.077c0.035-0.011,0.041-0.077,0.078-0.077c0.163,0,0.467,0.215,0.54,0.309
		c0.106,0.136,0.123,0.33,0.232,0.463c0.127,0.156,0.328,0.237,0.463,0.386c0.101,0.112,0.159,0.255,0.231,0.386
		c0.057,0.101,0.118,0.2,0.155,0.309c0.041,0.125,0.054,0.257,0.077,0.386c0.103,0.564,0.077,0.357,0.077,0.927
		c0,0.128,0.05,0.267,0,0.386c-0.094,0.225-0.558,0.765-0.772,0.927c-0.533,0.4-0.522,0.295-1.159,0.386
		c-0.238,0.034-0.679,0.145-0.927,0.078c-0.145-0.04-0.258-0.155-0.387-0.232c-0.128-0.077-0.279-0.125-0.386-0.232
		c-0.106-0.106-0.154-0.257-0.231-0.386c-0.118-0.196-0.298-0.474-0.387-0.695c-0.224-0.559-0.266-0.932-0.231-1.545
		c0.013-0.233-0.017-0.482,0.077-0.695c0.135-0.309,0.581-0.641,0.85-0.85c0.102-0.079,0.196-0.169,0.309-0.232
		c0.122-0.067,0.254-0.114,0.387-0.154c0.203-0.062,0.407-0.126,0.618-0.155c0.179-0.024,0.36,0,0.541,0c0.154,0,0.309,0,0.463,0
		c0.335,0,0.67,0,1.005,0c0.28,0,0.382-0.041,0.617,0.078c0.227,0.113,0.597,0.472,0.695,0.695c0.054,0.12,0.046,0.259,0.077,0.386
		c0.061,0.24,0.21,0.656,0.232,0.927c0.015,0.18,0,0.36,0,0.541c0,0.181,0.04,0.365,0,0.541c-0.039,0.168-0.149,0.312-0.232,0.463
		c-0.071,0.132-0.139,0.268-0.231,0.386c-0.089,0.115-0.206,0.206-0.309,0.309c-0.181,0.18-0.36,0.361-0.541,0.541
		c-0.077,0.077-0.154,0.154-0.231,0.231c-0.052,0.052-0.095,0.114-0.155,0.155c-0.021,0.014-0.059-0.019-0.077,0
		c-0.04,0.041-0.025,0.129-0.077,0.154c-0.069,0.035-0.155-0.011-0.231,0c-0.105,0.015-0.204,0.064-0.31,0.077
		c-0.102,0.013-0.205,0-0.309,0c-0.309,0-0.618,0-0.927,0c-0.104,0-0.207,0.012-0.31,0c-0.092-0.01-0.581-0.116-0.695-0.154
		c-0.055-0.018-0.101-0.056-0.154-0.077c-0.075-0.03-0.164-0.032-0.231-0.077c-0.091-0.061-0.154-0.154-0.231-0.232
		c-0.052-0.051-0.104-0.103-0.155-0.154c-0.051-0.052-0.11-0.096-0.154-0.155c-0.034-0.046-0.052-0.103-0.077-0.154
		c-0.052-0.103-0.123-0.198-0.154-0.309c-0.021-0.074,0-0.154,0-0.232c0-0.18,0-0.36,0-0.541c0-0.044-0.015-0.358,0-0.386
		c0.016-0.033,0.045-0.059,0.077-0.077c0.149-0.086,0.314-0.145,0.464-0.232c0.16-0.093,0.299-0.222,0.463-0.309
		c0.638-0.34,0.755-0.337,1.468-0.463c0.18-0.032,0.359-0.063,0.541-0.077c0.257-0.02,0.515,0,0.772,0c0.18,0,0.36,0,0.541,0
		c0.129,0,0.26-0.023,0.386,0c0.542,0.099,0.368,0.133,0.772,0.386c0.915,0.572-0.254-0.276,0.541,0.386
		c0.071,0.06,0.172,0.083,0.231,0.155c0.074,0.088,0.108,0.204,0.155,0.309c0.056,0.127,0.12,0.252,0.154,0.387
		c0.103,0.411,0.077,0.664,0.077,1.081c0,0.206,0,0.412,0,0.618c0,0.052,0.028,0.112,0,0.154c-0.032,0.048-0.1,0.062-0.154,0.078
		c-0.127,0.036-0.257,0.059-0.387,0.077c-0.66,0.094-0.587,0.077-1.158,0.077c-0.181,0-0.361,0-0.541,0c-0.129,0-0.258,0-0.387,0
		c-0.025,0-0.054,0.012-0.077,0c-0.032-0.016-0.051-0.051-0.077-0.077"/>
	<path id="path3981" inkscape:connector-curvature="0" fill="none" stroke="#0000FF" d="M327.43,300.035
		c0.154-0.206,0.281-0.436,0.463-0.618c0.132-0.131,0.308-0.208,0.464-0.309c0.278-0.179,0.803-0.542,1.158-0.618
		c0.177-0.038,0.361,0,0.541,0c0.36,0,0.721,0,1.082,0c0.18,0,0.36,0,0.54,0c0.373,0,0.633-0.022,1.005,0.077
		c0.367,0.098,1.235,0.489,1.468,0.695c0.234,0.208,0.366,0.511,0.54,0.772c0.421,0.631,0.656,0.885,0.773,1.622
		c0.021,0.134,0.004,1.265-0.078,1.391c-0.179,0.277-0.492,0.443-0.772,0.618c-0.556,0.348-1.239,0.609-1.854,0.85
		c-2.436,0.953-0.003,0.027-1.545,0.541c-0.209,0.069-0.405,0.175-0.618,0.231c-0.345,0.092-0.527,0.077-0.85,0.077
		c-0.181,0-0.363,0.03-0.541,0c-0.137-0.022-0.262-0.092-0.387-0.154c-0.238-0.119-0.586-0.354-0.772-0.541
		c-0.116-0.116-0.207-0.256-0.309-0.386c-0.419-0.539-0.096-0.056-0.309-0.695c-0.188-0.562-0.147-0.047-0.31-0.695
		c-0.019-0.075,0-0.155,0-0.232c0-0.18,0-0.36,0-0.541c0-0.052,0-0.103,0-0.155c0-0.077-0.024-0.159,0-0.232
		c0.029-0.088,0.104-0.154,0.154-0.231c0.227-0.339,0.1-0.158,0.387-0.541c0.154-0.206,0.296-0.422,0.464-0.618
		c0.07-0.083,0.154-0.155,0.231-0.232s0.147-0.162,0.231-0.231c0.383-0.319,0.085-0.031,0.387-0.232
		c0.239-0.16,0.245-0.222,0.463-0.309c0.259-0.104,0.577-0.201,0.85-0.232c0.103-0.011,0.207,0.012,0.31,0
		c0.877-0.097-0.051-0.077,0.695-0.077c0.103,0,0.209-0.025,0.309,0c0.112,0.028,0.209,0.099,0.31,0.155
		c0.231,0.128,0.493,0.287,0.695,0.463c0.109,0.096,0.193,0.219,0.309,0.309c0.946,0.568,0.006-0.072,0.541,0.463
		c0.116,0.117,0.285,0.179,0.386,0.309c0.086,0.109,0.093,0.262,0.155,0.386c0.041,0.083,0.129,0.143,0.154,0.232
		c0.028,0.099-0.013,0.207,0,0.309c0.103,0.818,0.077-0.194,0.077,0.618c0,0.463,0,0.927,0,1.391c0,0.103,0,0.206,0,0.309
		c0,0.051,0,0.103,0,0.154c0,0.026,0.018,0.059,0,0.077c-0.019,0.018-0.077,0.026-0.077,0s0.077,0.026,0.077,0
		c0-0.058-0.063-0.099-0.077-0.154c-0.013-0.05,0-0.103,0-0.155c0-0.051-0.017-0.105,0-0.154c0.101-0.302,0.37-0.652,0.618-0.85
		c0.045-0.036,0.106-0.045,0.154-0.077c0.03-0.021,0.052-0.104,0.077-0.078c0.036,0.037,0,0.103,0,0.155
		c0,0.311,0.014,0.217-0.154,0.695c-0.093,0.261-0.222,0.509-0.31,0.772c-0.093,0.278-0.111,0.582-0.231,0.85
		c-0.114,0.254-0.305,0.466-0.464,0.695c-0.354,0.512-0.595,0.779-1.235,0.85c-0.103,0.012-0.206,0-0.31,0c-0.36,0-0.721,0-1.081,0
		c-0.232,0-0.464,0-0.695,0c-0.104,0-0.208,0.018-0.31,0c-0.057-0.009-0.103-0.051-0.154-0.077
		c-0.052-0.025-0.108-0.042-0.154-0.077c-0.059-0.044-0.097-0.111-0.154-0.154c-0.19-0.143-0.151,0.005-0.31-0.232
		c-0.014-0.021,0.019-0.059,0-0.077c-0.077-0.052-0.154-0.103-0.231-0.155c-0.025,0-0.054,0.012-0.077,0
		c-0.321-0.161,0.083,0.005-0.077-0.154c-0.019-0.018-0.06,0.018-0.077,0c-0.019-0.018,0.012-0.054,0-0.077
		c-0.017-0.033-0.052-0.052-0.077-0.077c0-0.052,0.016-0.106,0-0.155c-0.037-0.109-0.118-0.2-0.155-0.309
		c-0.016-0.049,0-0.103,0-0.154c0-0.052,0-0.103,0-0.155c0-0.051,0-0.103,0-0.154c0-0.077-0.046-0.17,0-0.232
		c0.05-0.065,0.152-0.061,0.232-0.077c0.478-0.096,0.493-0.077,0.927-0.077c0.154,0,0.31-0.014,0.464,0
		c0.131,0.012,0.269,0.019,0.386,0.077c0.468,0.234,0.812,0.851,1.005,1.313c0.22,0.528,0.043,0.341,0.309,0.695
		c0.021,0.029,0.041,0.077,0.077,0.077c0.025,0,0-0.052,0-0.077s0.019-0.059,0-0.077c-0.065-0.066-0.156-0.101-0.231-0.155
		c-0.105-0.075-0.21-0.149-0.31-0.232c-0.056-0.046-0.098-0.109-0.154-0.154c-0.072-0.058-0.166-0.089-0.231-0.154
		c-0.065-0.066-0.097-0.159-0.154-0.232c-0.046-0.057-0.104-0.103-0.155-0.155c-0.025-0.025-0.061-0.044-0.077-0.077
		c-0.011-0.023,0.023-0.065,0-0.077c-0.046-0.023-0.103,0-0.154,0s-0.103,0-0.154,0c-0.154,0-0.31,0-0.464,0
		c-0.129,0-0.26-0.025-0.386,0c-0.057,0.011-0.099,0.063-0.155,0.077c-0.05,0.013-0.103,0-0.154,0c-0.18,0-0.36,0-0.541,0
		c-0.443,0-0.271,0.058-0.54-0.077c-0.052-0.025-0.12-0.031-0.154-0.077c-0.05-0.065-0.036-0.162-0.078-0.232
		c-0.037-0.062-0.103-0.103-0.154-0.154c-0.025-0.077-0.041-0.159-0.077-0.232c-0.041-0.083-0.106-0.152-0.154-0.231
		c-0.029-0.05-0.043-0.108-0.077-0.155c-0.044-0.058-0.111-0.096-0.155-0.154c-0.037-0.05-0.211-0.401-0.231-0.463
		c-0.033-0.101-0.062-0.204-0.077-0.309c-0.021-0.153,0.025-0.311,0-0.463c-0.014-0.081-0.058-0.153-0.077-0.232
		c-0.006-0.025,0.012-0.054,0-0.077c-0.017-0.033-0.062-0.045-0.077-0.078c-0.036-0.072-0.047-0.156-0.077-0.231
		c-0.043-0.107-0.118-0.2-0.154-0.309c-0.009-0.024,0.011-0.054,0-0.077c-0.017-0.033-0.062-0.045-0.078-0.078
		c-0.011-0.023-0.01-0.053,0-0.077c0.043-0.107,0.098-0.209,0.155-0.309c0.046-0.081,0.094-0.162,0.154-0.232
		c0.095-0.111,0.244-0.179,0.309-0.309C327.371,300.463,327.308,300.209,327.43,300.035c0.079-0.113,0.279-0.065,0.386-0.154
		c0.062-0.052,0.041-0.159,0.077-0.232c0.136-0.271,0.293-0.333,0.464-0.618c0.071-0.119,0.098-0.26,0.154-0.387
		c0.047-0.105,0.103-0.206,0.154-0.309c0.026-0.052,0.037-0.114,0.077-0.155c0.019-0.018,0.055,0.012,0.077,0
		c0.065-0.033,0.09-0.122,0.155-0.154c0.022-0.012,0.053,0.008,0.077,0c0.131-0.044,0.256-0.106,0.386-0.155
		c0.152-0.057,0.318-0.082,0.464-0.154c0.083-0.042,0.148-0.113,0.231-0.154c0.073-0.037,0.154-0.052,0.231-0.078
		c0.077-0.025,0.155-0.051,0.232-0.077s0.162-0.035,0.231-0.077c0.062-0.038,0.094-0.114,0.154-0.154
		c0.021-0.015,0.066,0.023,0.077,0c0.023-0.046-0.028-0.112,0-0.155c0.032-0.048,0.106-0.045,0.155-0.077
		c0.03-0.02,0.042-0.065,0.077-0.077c0.049-0.017,0.118,0.036,0.154,0c0.058-0.058,0.012-0.183,0.077-0.232
		c0.062-0.046,0.158,0.024,0.231,0c0.024-0.008-0.022-0.065,0-0.077c0.047-0.023,0.104,0,0.154,0c0.026,0,0.06-0.018,0.078,0
		c0.04,0.041,0.036,0.114,0.077,0.155c0.018,0.018,0.059-0.019,0.077,0c0.018,0.018-0.019,0.059,0,0.077
		c0.018,0.018,0.053-0.008,0.077,0c0.28,0.093,0.055,0.037,0.231,0.154c0.271,0.181,0.159-0.068,0.31,0.232"/>
	<path id="path3983" inkscape:connector-curvature="0" fill="none" stroke="#0000FF" d="M329.129,303.048
		c0-0.194-0.038-0.572,0.077-0.772c0.054-0.095,0.163-0.146,0.231-0.232c0.036-0.045,0.046-0.106,0.077-0.154
		c0.08-0.12,0.152-0.104,0.31-0.077c0.08,0.013,0.189,0.007,0.231,0.077c0.053,0.088-0.01,0.207,0,0.309
		c0.042,0.423,0.151,0.558,0.077,1.004c-0.044,0.265-0.271,0.605-0.464,0.772c-0.086,0.076-0.205,0.104-0.309,0.155
		c-0.082,0.041-0.203,0.13-0.309,0.077c-0.023-0.011,0-0.051,0-0.077c0-0.212-0.023-0.108,0.077-0.309
		c0.051-0.103,0.154-0.194,0.154-0.309C329.284,303.349,329.014,303.163,329.129,303.048s0.303,0.128,0.463,0.154
		c0.025,0.004,0-0.051,0-0.077c0-0.025,0-0.051,0-0.077c0-0.025,0-0.052,0-0.077c0-0.026-0.025-0.077,0-0.077
		c0.026,0,0,0.103,0,0.077c0-0.052,0-0.103,0-0.154c0-0.026,0.007-0.053,0-0.078c-0.02-0.079-0.04-0.159-0.077-0.231
		c-0.016-0.033-0.056-0.107-0.077-0.078C329.304,302.617,329.078,302.823,329.129,303.048c0.05,0.216,0.412,0.206,0.541,0.386
		c0.142,0.199,0.143,0.468,0.231,0.695c0.092,0.236,0.22,0.458,0.309,0.695c0.066,0.175,0.1,0.362,0.154,0.541
		c0.049,0.156,0.104,0.309,0.155,0.464c0.025,0.077,0.04,0.159,0.077,0.231c0.077,0.129,0.154,0.258,0.231,0.387
		c0.052,0.025,0.118,0.032,0.154,0.077c0.072,0.09,0.098,0.209,0.155,0.31c0.046,0.08,0.103,0.154,0.154,0.23
		c0.051,0.078,0.112,0.149,0.154,0.232c0.021,0.043,0.05,0.273,0.154,0.309c0.049,0.017,0.104,0,0.154,0c0.125,0,0.324,0,0.387,0
		c0.117,0,0.293,0.017,0.386-0.076c0.077-0.078-0.038-0.155,0-0.232c0.042-0.083,0.113-0.148,0.155-0.232
		c0.011-0.022-0.009-0.053,0-0.076c0.018-0.055,0.059-0.101,0.077-0.154c0.015-0.045,0-0.182,0-0.232c0-0.104,0.015-0.207,0-0.309
		c-0.034-0.239-0.171-0.557-0.232-0.772c-0.058-0.204-0.1-0.413-0.154-0.618c-0.048-0.181-0.126-0.355-0.154-0.541
		c-0.023-0.153,0.025-0.311,0-0.464c-0.026-0.16-0.118-0.305-0.154-0.463c-0.166-0.718,0.009-0.328-0.154-0.927
		c-0.043-0.157-0.112-0.307-0.155-0.463c-0.107-0.396-0.115-0.848-0.231-1.236c-0.04-0.133-0.11-0.255-0.154-0.386
		c-0.034-0.101-0.04-0.209-0.077-0.309c-0.041-0.108-0.104-0.206-0.154-0.309c-0.052-0.103-0.104-0.206-0.155-0.309
		c-0.025-0.051-0.045-0.106-0.077-0.154c-0.071-0.107-0.168-0.197-0.231-0.309c-0.04-0.071-0.035-0.162-0.077-0.232
		c-0.075-0.125-0.234-0.184-0.31-0.309c-0.377-0.628,0.158,0.083-0.154-0.386c-0.021-0.03-0.052-0.052-0.077-0.078
		c-0.025-0.051-0.045-0.106-0.077-0.154c-0.021-0.03-0.061-0.045-0.077-0.077c-0.012-0.023,0.019-0.059,0-0.077s-0.052,0-0.077,0
		c-0.019,0-0.292-0.009-0.31,0c-0.032,0.016-0.044,0.061-0.077,0.077c-0.189,0.095,0.07-0.224-0.231,0.077
		c-0.019,0.018,0.019,0.059,0,0.077c-0.065,0.066-0.157,0.099-0.231,0.155c-0.059,0.043-0.094,0.114-0.154,0.154
		c-0.141,0.094-0.144,0.037-0.232,0.155c-0.292,0.39-0.012,0.09-0.309,0.386c-0.026,0.026-0.045,0.061-0.077,0.077
		c-0.023,0.012-0.053-0.008-0.077,0c-0.055,0.018-0.101,0.059-0.155,0.077c-0.024,0.008-0.054-0.011-0.077,0
		c-0.021,0.01-0.221,0.211-0.231,0.232c-0.012,0.023,0.019,0.059,0,0.077c-0.019,0.019-0.052,0-0.077,0"/>
</g>
</svg>
