<?xml version="1.0" encoding="utf-8"?>
<!-- Generator: Adobe Illustrator 15.1.0, SVG Export Plug-In . SVG Version: 6.00 Build 0)  -->
<!DOCTYPE svg PUBLIC "-//W3C//DTD SVG 1.1//EN" "http://www.w3.org/Graphics/SVG/1.1/DTD/svg11.dtd">
<svg version="1.1"
	 id="svg2" xmlns:dc="http://purl.org/dc/elements/1.1/" xmlns:cc="http://creativecommons.org/ns#" xmlns:svg="http://www.w3.org/2000/svg" xmlns:rdf="http://www.w3.org/1999/02/22-rdf-syntax-ns#" xmlns:inkscape="http://www.inkscape.org/namespaces/inkscape" xmlns:sodipodi="http://sodipodi.sourceforge.net/DTD/sodipodi-0.dtd" sodipodi:docname="river.svg" inkscape:version="0.48.3.1 r9886"
	 xmlns="http://www.w3.org/2000/svg" xmlns:xlink="http://www.w3.org/1999/xlink" x="0px" y="0px" width="3000px" height="2000px"
	 viewBox="0 0 3000 2000" enable-background="new 0 0 3000 2000" xml:space="preserve">
<defs>
	
	<inkscape:path-effect  is_visible="true" effect="spiro" id="path-effect3959"></inkscape:path-effect>
</defs>
<sodipodi:namedview  inkscape:guide-bbox="true" showguides="true" inkscape:window-y="24" inkscape:window-x="65" inkscape:window-height="1026" inkscape:window-width="1335" showgrid="false" inkscape:current-layer="layer1" inkscape:document-units="px" inkscape:cy="966.79669" inkscape:cx="1517.014" inkscape:pageshadow="2" inkscape:pageopacity="0.0" borderopacity="1.0" inkscape:zoom="0.35" bordercolor="#666666" id="base" pagecolor="#ffffff" inkscape:window-maximized="1">
	</sodipodi:namedview>
<g id="layer1" transform="translate(0,947.63782)" inkscape:label="Ebene 1" inkscape:groupmode="layer">
	<g id="g3837" transform="translate(-37.142857,-40)">
		<g id="g3940">
			<path id="path3763" inkscape:connector-curvature="0" fill="none" stroke="#0064FF" stroke-width="10" d="M100.5-253.352
				c348.571-288.572,385.715,94.285,708.571-142.857c322.857-237.143,545.715-168.572,545.715-168.572s242.857,31.429,380-122.857
				s482.857-157.143,482.857-157.143l0,0"/>
			<path id="path3765" inkscape:connector-curvature="0" fill="none" stroke="#0064FF" stroke-width="10" d="M100.5-27.638
				c348.571-288.571,385.715,94.286,708.571-142.857c322.857-237.143,545.715-168.571,545.715-168.571s242.857,31.429,380-122.857
				c137.143-154.285,482.857-157.143,482.857-157.143l0,0"/>
			
				<path id="path3787" sodipodi:nodetypes="ccsc" inkscape:connector-curvature="0" fill="none" stroke="#0064FF" stroke-width="5" d="
				M1934.04-704.129c48.708-42.98,68.191,1.791,68.191,1.791s36.531,42.979,76.716-3.582c40.185-46.562,0,0,0,0"/>
			
				<path id="path3789" sodipodi:nodetypes="ccsc" inkscape:connector-curvature="0" fill="none" stroke="#0064FF" stroke-width="5" d="
				M234.04-238.415c48.708-42.979,68.191,1.791,68.191,1.791s36.531,42.979,76.716-3.582c40.185-46.561,0,0,0,0"/>
			
				<path id="path3791" sodipodi:nodetypes="ccsc" inkscape:connector-curvature="0" fill="none" stroke="#0064FF" stroke-width="5" d="
				M856.897-346.986c48.708-42.979,68.191,1.791,68.191,1.791s36.531,42.979,76.716-3.582c40.184-46.562,0,0,0,0"/>
			<g id="g3828" transform="translate(28.571429,-5.7142857)">
				
					<path id="path3814" sodipodi:nodetypes="ccsc" inkscape:connector-curvature="0" fill="none" stroke="#FF6428" stroke-width="5" d="
					M1359.533-492.883v71.765c0,0,194.884-158.291,196.088-36.803C1556.824-336.473,1359.533-492.883,1359.533-492.883z"/>
				<path id="path3818" inkscape:connector-curvature="0" fill="none" stroke="#FF6428" stroke-width="5" d="M1513.572-450.495
					c37.143,28.571,40,11.429,40,11.429l0,0"/>
				
					<path id="path3820" sodipodi:ry="29.642857" sodipodi:rx="29.642857" sodipodi:cy="830.35712" sodipodi:type="arc" sodipodi:cx="1550.3572" d="
					M1539.999-468.352c0,3.156-2.558,5.715-5.714,5.715s-5.714-2.559-5.714-5.715s2.558-5.714,5.714-5.714
					S1539.999-471.508,1539.999-468.352z"/>
			</g>
		</g>
		
			<path id="path3951" sodipodi:nodetypes="ccsc" inkscape:connector-curvature="0" fill="none" stroke="#0064FF" stroke-width="5" d="
			M1572.084,804.588c48.709-42.98,68.191,1.79,68.191,1.79s36.531,42.98,76.716-3.581s0,0,0,0"/>
	</g>
	<g id="flowRoot3894" transform="translate(0,-947.63782)">
	</g>
	<g id="g3914" transform="matrix(0.99999898,0,0,1,1968.5716,-849.80767)">
		<g id="g3888">
			
				<path id="path3835" sodipodi:ry="68.571426" sodipodi:rx="178.57143" sodipodi:cy="1457.1428" sodipodi:type="arc" sodipodi:cx="332.85715" fill-opacity="0" stroke="#000000" stroke-width="4.6429" d="
				M587.664,456.375c0,40.784-86.099,73.847-192.307,73.847c-106.209,0-192.309-33.062-192.309-73.847
				c0-40.783,86.1-73.846,192.309-73.846C501.566,382.529,587.664,415.592,587.664,456.375z"/>
			<path id="path3848" inkscape:connector-curvature="0" fill="none" stroke="#000000" stroke-width="5" d="M203.049,456.375
				l30.77,360"/>
			<path id="path3850" inkscape:connector-curvature="0" fill="none" stroke="#000000" stroke-width="5" d="M587.664,453.299
				l-30.769,360"/>
			
				<path id="path3856" sodipodi:nodetypes="csc" inkscape:connector-curvature="0" fill="none" stroke="#000000" stroke-width="5" d="
				M233.818,813.299c53.364,29.521,117.491,37.045,166.328,36.325c88.846-1.31,156.749-37.864,156.749-37.864"/>
		</g>
		<text transform="matrix(1 0 0 1 319.9991 740.9463)" font-family="'ArialMT'" font-size="100">13</text>
	</g>
	<g id="g3923" transform="translate(1928.5714,-850.42899)">
		<g id="g3878">
			
				<path id="path3866" sodipodi:ry="68.571426" sodipodi:rx="178.57143" sodipodi:cy="1457.1428" sodipodi:type="arc" sodipodi:cx="332.85715" fill-opacity="0" stroke="#000000" stroke-width="6.0357" d="
				M1030.251,547.757c0,31.372-66.23,56.805-147.93,56.805c-81.698,0-147.929-25.433-147.929-56.805s66.23-56.805,147.929-56.805
				C964.021,490.952,1030.251,516.385,1030.251,547.757L1030.251,547.757z"/>
			<path id="path3868" inkscape:connector-curvature="0" fill="none" stroke="#000000" stroke-width="5" d="M734.393,547.757
				l23.669,276.923"/>
			<path id="path3870" inkscape:connector-curvature="0" fill="none" stroke="#000000" stroke-width="5" d="M1030.251,545.39
				l-23.669,276.923"/>
			
				<path id="path3872" sodipodi:nodetypes="csc" inkscape:connector-curvature="0" fill="none" stroke="#000000" stroke-width="5" d="
				M758.062,822.313c41.049,22.709,90.378,28.496,127.945,27.943c68.342-1.007,120.575-29.127,120.575-29.127"/>
		</g>
		<text transform="matrix(1 0 0 1 811.4288 740.9465)" font-family="'ArialMT'" font-size="100">10</text>
	</g>
	<g id="g4017">
		
			<path id="path3938" sodipodi:nodetypes="ccsc" inkscape:connector-curvature="0" fill="none" stroke="#0064FF" stroke-width="5" d="
			M2005.673,479.725c48.708-42.979,68.191,1.791,68.191,1.791s36.531,42.979,76.716-3.582s0,0,0,0"/>
		
			<path id="path3953" sodipodi:nodetypes="ccsc" inkscape:connector-curvature="0" fill="none" stroke="#0064FF" stroke-width="5" d="
			M1534.942,764.588c48.709-42.98,68.191,1.79,68.191,1.79s36.531,42.98,76.716-3.581s0,0,0,0"/>
		
			<path id="path3955" sodipodi:nodetypes="ccsc" inkscape:connector-curvature="0" fill="none" stroke="#0064FF" stroke-width="5" d="
			M799.551,166.577c48.708-42.979,68.191,1.791,68.191,1.791s36.531,42.979,76.716-3.582c40.185-46.561,0,0,0,0"/>
		
			<path id="path3833" sodipodi:nodetypes="cscssc" inkscape:connector-curvature="0" fill="none" stroke="#0064FF" stroke-width="10" d="
			M1003.819-97.601C337.372,5.251,581.126,658.513,854.85,777.826c283.48,123.566,301.538,111.294,301.538,111.294
			s912.784,228.24,1075.296-180.838c162.512-409.077-154.947-660.521-433.364-773.156
			C1545.524-167.144,1003.819-97.601,1003.819-97.601L1003.819-97.601z"/>
		<g id="g4005">
			
				<path id="path3934" sodipodi:nodetypes="cscsscc" inkscape:connector-curvature="0" fill="none" stroke="#008C00" stroke-width="5" d="
				M1641.141,157.772c-89.085,6.264-129.594,41.065-132.476,63.741c-7.226,56.848,109.864,70.329,109.864,70.329
				s-87.709,11.564-111.608,43.891c-17.303,23.402-2.606,65.377,109.935,84.824c234.142,40.46,244.285-112.786,244.285-112.786
				S1898.284,157.771,1641.141,157.772z"/>
			
				<path id="path3936" sodipodi:nodetypes="ccscc" inkscape:connector-curvature="0" fill="none" stroke="#008C00" stroke-width="5" d="
				M1182.549,443.877c350.324-201.288,302.538,95.773,147.067,153.054c0,0-255.416,150.737-340.065-51.053
				c-61.95-147.68,67.549-235.992,67.549-235.992C1225.593,190.409,1270.414,370.831,1182.549,443.877z"/>
			<g id="g3993">
				
					<path id="path3961" sodipodi:nodetypes="ccscc" inkscape:connector-curvature="0" fill="none" stroke="#008C00" stroke-width="5" d="
					M1330.316,284.56c33.34-36.674,28.339,14.003,28.339,14.003s38.194-33.926,30.006,12.669
					c-8.129,46.25-52.011,23.338-52.011,23.338S1306.977,316.899,1330.316,284.56L1330.316,284.56z"/>
				
					<path id="path3963" sodipodi:nodetypes="cccc" inkscape:connector-curvature="0" fill="none" stroke="#008C00" stroke-width="5" stroke-linecap="round" stroke-linejoin="round" d="
					M1415.692,371.875v-35.417l-84.35,35.417H1415.692z"/>
				<path id="path3967" inkscape:connector-curvature="0" fill="none" stroke="#008C00" stroke-width="5" d="M1402.58,351.763
					l0.943-36.306l-21.688,13.674l0,0"/>
				<path id="path3969" inkscape:connector-curvature="0" fill="none" stroke="#008C00" stroke-width="5" d="M1351.895,339.975
					l-37.72,17.21h50.215h0.235"/>
			</g>
		</g>
	</g>
</g>
</svg>
