<?xml version="1.0" encoding="UTF-8" standalone="no"?>
<!-- Created with Inkscape (http://www.inkscape.org/) -->

<svg
   xmlns:dc="http://purl.org/dc/elements/1.1/"
   xmlns:cc="http://creativecommons.org/ns#"
   xmlns:rdf="http://www.w3.org/1999/02/22-rdf-syntax-ns#"
   xmlns:svg="http://www.w3.org/2000/svg"
   xmlns="http://www.w3.org/2000/svg"
   xmlns:sodipodi="http://sodipodi.sourceforge.net/DTD/sodipodi-0.dtd"
   xmlns:inkscape="http://www.inkscape.org/namespaces/inkscape"
   width="998"
   height="622"
   id="svg3828"
   version="1.1"
   inkscape:version="0.48.2 r9819"
   sodipodi:docname="butterfly.svg">
  <defs
     id="defs3830">
    <inkscape:perspective
       sodipodi:type="inkscape:persp3d"
       inkscape:vp_x="0 : 311 : 1"
       inkscape:vp_y="0 : 1000 : 0"
       inkscape:vp_z="998 : 311 : 1"
       inkscape:persp3d-origin="499 : 207.33333 : 1"
       id="perspective4458" />
  </defs>
  <sodipodi:namedview
     id="base"
     pagecolor="#ffffff"
     bordercolor="#666666"
     borderopacity="1.0"
     inkscape:pageopacity="0.0"
     inkscape:pageshadow="2"
     inkscape:zoom="0.86790541"
     inkscape:cx="522.78089"
     inkscape:cy="305.15653"
     inkscape:document-units="px"
     inkscape:current-layer="layer1"
     showgrid="false"
     fit-margin-top="0"
     fit-margin-left="0"
     fit-margin-right="0"
     fit-margin-bottom="0"
     inkscape:window-width="1353"
     inkscape:window-height="752"
     inkscape:window-x="67"
     inkscape:window-y="0"
     inkscape:window-maximized="0" />
  <metadata
     id="metadata3833">
    <rdf:RDF>
      <cc:Work
         rdf:about="">
        <dc:format>image/svg+xml</dc:format>
        <dc:type
           rdf:resource="http://purl.org/dc/dcmitype/StillImage" />
        <dc:title></dc:title>
      </cc:Work>
    </rdf:RDF>
  </metadata>
  <g
     inkscape:label="Layer 1"
     inkscape:groupmode="layer"
     id="layer1"
     transform="translate(139,-152.79076)">
    <path
       style="fill:none;stroke:#000000;stroke-width:1px;stroke-linecap:butt;stroke-linejoin:miter;stroke-opacity:1"
       d="m 469.72093,183.5938 c 0,0 -173.74623,-114.147242 -436.385896,-38.3858"
       id="path3869"
       inkscape:connector-curvature="0"
       transform="translate(-139,152.79076)" />
    <path
       style="fill:none;stroke:#000000;stroke-width:1px;stroke-linecap:butt;stroke-linejoin:miter;stroke-opacity:1"
       d="m 33.928571,144.85714 c 0,0 -2.142857,0.71429 -5,5.35714 -2.857142,4.64286 -31.0714281,77.85715 75.357139,118.92858 0,0 48.92858,22.14285 53.57143,40.71428 4.64286,18.57143 35,75.71429 106.78572,32.5 0,0 -47.46006,77.86489 -5.28619,131.90805 0,0 41.35762,48.09195 118.50047,63.09195 77.14286,15 102.5,-41.78571 102.5,-41.78571 0,0 6.07143,-24.28572 5.71429,-45.71429 -0.35714,-21.42857 -2.14286,-31.42857 -2.14286,-31.42857 0,0 2.85715,12.5 13.21429,10.35714 l 0.71428,-283.92857 c 0,0 -31.78571,5.35714 -15.35714,26.07143"
       id="path3881"
       inkscape:connector-curvature="0"
       transform="translate(-139,152.79076)" />
    <path
       style="fill:none;stroke:#000000;stroke-width:1px;stroke-linecap:butt;stroke-linejoin:miter;stroke-opacity:1"
       d="m 330.375,336.21933 13.21429,-13.125"
       id="path3885"
       inkscape:connector-curvature="0" />
    <path
       style="fill:none;stroke:#000000;stroke-width:1px;stroke-linecap:butt;stroke-linejoin:miter;stroke-opacity:1"
       d="m 363.14984,22.474464 c 0,0 -3.53553,13.131983 64.14469,59.093924 67.68022,45.961942 61.6193,65.154842 61.6193,65.154842 l -0.0631,0.82075"
       id="path3887"
       inkscape:connector-curvature="0"
       transform="translate(-139,152.79076)" />
    <path
       style="fill:none;stroke:#000000;stroke-width:1px;stroke-linecap:butt;stroke-linejoin:miter;stroke-opacity:1"
       d="m 468.94511,183.58817 c 0,0 22.46789,86.41494 14.4025,236.20085"
       id="path3916"
       inkscape:connector-curvature="0"
       transform="translate(-139,152.79076)" />
    <path
       style="fill:none;stroke:#000000;stroke-width:1px;stroke-linecap:butt;stroke-linejoin:miter;stroke-opacity:1"
       d="m 440.14013,202.02336 c 0,0 -220.64616,-95.05645 -365.247176,-29.38109"
       id="path3918"
       inkscape:connector-curvature="0"
       transform="translate(-139,152.79076)" />
    <path
       style="fill:none;stroke:#000000;stroke-width:1px;stroke-linecap:butt;stroke-linejoin:miter;stroke-opacity:1"
       d="m 75.469054,172.64227 c 0,0 0,40.32698 46.664076,50.69677 46.66407,10.3698 74.89295,66.82756 74.89295,66.82756 0,0 3.4566,40.32698 68.55586,13.25029 65.09926,-27.07668 173.40599,-101.39353 173.40599,-101.39353"
       id="path3930"
       inkscape:connector-curvature="0"
       transform="translate(-139,152.79076)" />
    <path
       style="fill:none;stroke:#000000;stroke-width:1px;stroke-linecap:butt;stroke-linejoin:miter;stroke-opacity:1"
       d="m 447.05333,268.27482 -137.68782,80.07785 c 0,0 -38.59867,31.68548 -21.89179,87.56714 16.70689,55.88167 110.03504,65.09926 110.03504,65.09926 0,0 48.96847,2.8805 53.57727,-63.94706 4.60879,-66.82756 -4.0327,-168.79719 -4.0327,-168.79719 z"
       id="path3934"
       inkscape:connector-curvature="0"
       transform="translate(-139,152.79076)" />
    <path
       style="fill:#000080;fill-opacity:1;stroke:#000077;stroke-width:0.6;stroke-linejoin:miter;stroke-miterlimit:4;stroke-opacity:1;stroke-dasharray:none"
       d="m 483.71687,290.46588 c -0.0404,-0.14003 -0.22437,-2.63768 -0.40871,-5.55033 -2.09474,-33.09795 -7.44137,-73.78241 -12.76797,-97.15631 -0.33188,-1.45633 -0.66119,-2.92042 -0.73181,-3.25353 -0.12231,-0.57702 0.18877,-0.91611 6.57677,-7.16911 5.26391,-5.15266 6.66138,-6.62665 6.50147,-6.8575 -3.64507,-5.2623 -4.48458,-7.37549 -4.3421,-10.92981 0.0657,-1.63915 0.17308,-2.1374 0.70235,-3.25892 1.82384,-3.86471 6.096,-6.95935 12.7036,-9.20214 1.76008,-0.59742 4.66151,-1.38932 5.09031,-1.38932 0.23929,0 0.16156,75.25668 -0.12828,124.19509 l -0.12334,20.82648 -6.49938,0 c -5.02449,0 -6.51606,-0.0578 -6.57291,-0.2546 z"
       id="path4474"
       inkscape:connector-curvature="0"
       transform="translate(-139,152.79076)" />
    <path
       style="fill:#000080;fill-opacity:1;stroke:#000077;stroke-width:0.522;stroke-linejoin:miter;stroke-miterlimit:4;stroke-opacity:1;stroke-dasharray:none"
       d="m 485.11382,391.90355 c 0.5321,-14.12857 0.68754,-43.26059 0.31761,-59.52606 -0.29787,-13.09748 -0.82524,-26.35399 -1.55499,-39.08805 l -0.13899,-2.4253 0.66938,0.13388 c 0.36815,0.0736 3.31597,0.13387 6.55069,0.13387 l 5.88132,0 0,18.50125 c 0,10.17569 -0.061,33.63986 -0.13558,52.14259 l -0.13559,33.64134 -5.79309,0 -5.79308,0 0.13232,-3.51352 0,0 z"
       id="path4476"
       inkscape:connector-curvature="0"
       transform="translate(-139,152.79076)" />
    <path
       style="fill:#000080;fill-opacity:1;stroke:#000077;stroke-width:0.506;stroke-linejoin:miter;stroke-miterlimit:4;stroke-opacity:1;stroke-dasharray:none"
       d="m 492.56646,428.08703 c -2.98651,-0.80255 -5.6447,-3.55006 -7.19553,-7.43732 -0.28526,-0.715 -0.58132,-1.55207 -0.65791,-1.86013 -0.0766,-0.30807 -0.27369,-0.56013 -0.43799,-0.56013 -0.24891,0 -0.27872,-0.29726 -0.17872,-1.78222 0.14814,-2.19972 0.46939,-9.22978 0.62128,-13.59577 0.0624,-1.7924 0.16565,-4.10674 0.22954,-5.14297 l 0.11617,-1.88406 5.78593,0 5.78593,0 0,16.16896 0,16.16897 -0.45829,0.12281 c -0.77554,0.20784 -2.43947,0.11652 -3.61041,-0.19814 l 0,0 z"
       id="path4478"
       inkscape:connector-curvature="0"
       transform="translate(-139,152.79076)" />
    <path
       style="fill:#313b91;fill-opacity:1;stroke:#000077;stroke-width:1.612;stroke-linejoin:miter;stroke-miterlimit:4;stroke-opacity:1;stroke-dasharray:none;fill-rule:nonzero"
       d="m 394.77552,538.60646 c -31.64421,-2.76908 -69.3951,-16.25703 -98.05046,-35.03226 -16.06883,-10.52845 -31.65779,-23.60369 -37.75595,-31.66784 -15.01224,-19.852 -19.58509,-48.01601 -12.83155,-79.029 2.99289,-13.74368 9.4657,-31.30997 16.33083,-44.31956 1.9858,-3.76315 3.4407,-7.01193 3.2331,-7.21952 -0.20759,-0.2076 -3.60574,1.3506 -7.55144,3.46266 -14.99855,8.02846 -28.96634,12.10599 -41.39258,12.0835 -9.53412,-0.0173 -15.6143,-1.34172 -23.62711,-5.14676 -14.7402,-6.99966 -26.52776,-20.63438 -32.93452,-38.0955 -3.41998,-9.32086 -4.35826,-10.93415 -9.23208,-15.87372 -11.00661,-11.1551 -30.25334,-22.58348 -58.773817,-34.89888 -8.680627,-3.74837 -22.346456,-11.64152 -29.478511,-17.02627 l -4.418548,-3.33604 0,-51.54744 0,-51.54744 9.980417,-2.26928 C 116.67426,126.138 154.40595,121.43502 200.87027,120.61588 c 44.06499,-0.77685 79.5811,2.18972 120.17237,10.0377 46.57721,9.0053 95.22613,25.37102 130.57924,43.92746 16.44253,8.63049 16.13431,8.37139 17.58349,14.78182 10.81813,47.85425 16.72325,129.22975 14.40911,198.56458 -0.74254,22.2476 -0.7325,30.06672 0.046,35.84803 1.53586,11.40526 1.38572,39.82426 -0.26719,50.57469 -3.16882,20.60981 -4.33356,23.63182 -13.40437,34.77878 -10.91389,13.41185 -28.11403,23.57268 -46.64955,27.5578 -7.05088,1.51594 -21.82851,2.50911 -28.56387,1.91972 l -1e-5,0 z m 14.95487,-38.25622 c 24.57063,-6.34785 39.16542,-28.05202 42.02418,-62.49489 1.50755,-18.1632 1.90976,-52.17763 0.96056,-81.23338 -1.00284,-30.69758 -3.87849,-82.74038 -4.80692,-86.99433 l -0.58274,-2.67 -68.84451,39.96352 c -67.54331,39.2082 -68.9523,40.07711 -74.5476,45.97362 -21.33892,22.4876 -27.45902,58.68434 -15.09884,89.30057 3.08202,7.63419 7.63052,14.10582 15.15551,21.56334 17.18589,17.03183 45.12852,29.54564 81.00876,36.27892 9.84868,1.8482 18.3709,1.95593 24.7316,0.31263 z M 240.38972,312.24385 c 26.82844,-5.13312 78.51085,-31.85178 153.17247,-79.18675 22.70551,-14.39515 46.87609,-30.71209 46.62228,-31.47352 -0.56602,-1.69808 -38.8393,-15.49095 -64.14769,-23.11747 -45.70876,-13.77404 -91.43371,-23.14377 -135.24484,-27.7137 -17.26936,-1.80137 -69.03447,-2.04765 -82.69488,-0.39344 -31.8633,3.85849 -54.59435,9.42292 -78.213886,19.14631 -5.882183,2.4215 -6.150707,3.32475 -3.777894,12.70795 5.556381,21.97251 19.111625,34.44424 45.73638,42.08053 11.68254,3.35069 21.02463,7.65905 29.5142,13.61128 16.95311,11.88621 40.17695,40.27593 45.42477,55.529 1.99242,5.79107 2.86425,7.32718 6.34569,11.18072 3.14806,3.48452 8.87793,6.77463 13.83151,7.9421 4.86609,1.14686 16.62272,0.98981 23.43189,-0.31301 l 0,0 z"
       id="path4480"
       inkscape:connector-curvature="0"
       transform="translate(-139,152.79076)" />
    <path
       style="fill:#313b91;fill-opacity:1;fill-rule:nonzero;stroke:#313b91;stroke-width:1.31334138000000000;stroke-linejoin:miter;stroke-miterlimit:4;stroke-opacity:0.94117647;stroke-dasharray:none"
       d="M 50.042417,235.13596 C 35.248881,220.36692 27.034985,204.05915 24.958595,185.33484 c -1.649124,-14.87135 1.925086,-32.88514 7.512579,-37.86291 1.651396,-1.47119 23.936154,-8.09527 24.691843,-7.33958 0.180164,0.18017 0.233116,23.20845 0.117672,51.17396 l -0.209897,50.84639 -7.028375,-7.01674 z"
       id="path4482"
       inkscape:connector-curvature="0"
       transform="translate(-139,152.79076)" />
    <path
       sodipodi:type="arc"
       style="fill:#5965d8;fill-opacity:1;fill-rule:nonzero;stroke:#0a0d67;stroke-width:1.61199998999999994;stroke-linejoin:miter;stroke-miterlimit:4;stroke-opacity:1;stroke-dasharray:none"
       id="path4494"
       sodipodi:cx="156.123"
       sodipodi:cy="191.07747"
       sodipodi:rx="19.011288"
       sodipodi:ry="19.587389"
       d="m 175.13429,191.07747 a 19.011288,19.587389 0 1 1 -38.02258,0 19.011288,19.587389 0 1 1 38.02258,0 z"
       transform="translate(-139,152.79076)" />
    <path
       transform="matrix(1.6981123,0,0,1.6775795,-163.88083,31.385986)"
       d="m 175.13429,191.07747 a 19.011288,19.587389 0 1 1 -38.02258,0 19.011288,19.587389 0 1 1 38.02258,0 z"
       sodipodi:ry="19.587389"
       sodipodi:rx="19.011288"
       sodipodi:cy="191.07747"
       sodipodi:cx="156.123"
       id="path4496"
       style="fill:#5965d8;fill-opacity:1;fill-rule:nonzero;stroke:#0a0d67;stroke-width:1.61199999;stroke-linejoin:miter;stroke-miterlimit:4;stroke-opacity:1;stroke-dasharray:none"
       sodipodi:type="arc" />
    <path
       transform="matrix(0.70912094,0,0,0.71767623,-17.541935,291.99922)"
       d="m 175.13429,191.07747 a 19.011288,19.587389 0 1 1 -38.02258,0 19.011288,19.587389 0 1 1 38.02258,0 z"
       sodipodi:ry="19.587389"
       sodipodi:rx="19.011288"
       sodipodi:cy="191.07747"
       sodipodi:cx="156.123"
       id="path4498"
       style="fill:#5965d8;fill-opacity:1;fill-rule:nonzero;stroke:#0a0d67;stroke-width:1.61199999;stroke-linejoin:miter;stroke-miterlimit:4;stroke-opacity:1;stroke-dasharray:none"
       sodipodi:type="arc" />
    <path
       transform="matrix(0.79698632,0,0,0.77354557,51.122508,234.08368)"
       d="m 175.13429,191.07747 a 19.011288,19.587389 0 1 1 -38.02258,0 19.011288,19.587389 0 1 1 38.02258,0 z"
       sodipodi:ry="19.587389"
       sodipodi:rx="19.011288"
       sodipodi:cy="191.07747"
       sodipodi:cx="156.123"
       id="path4500"
       style="fill:#5965d8;fill-opacity:1;fill-rule:nonzero;stroke:#0a0d67;stroke-width:1.61199999;stroke-linejoin:miter;stroke-miterlimit:4;stroke-opacity:1;stroke-dasharray:none"
       sodipodi:type="arc" />
    <path
       sodipodi:type="arc"
       style="fill:#5965d8;fill-opacity:1;fill-rule:nonzero;stroke:#0a0d67;stroke-width:1.61199999;stroke-linejoin:miter;stroke-miterlimit:4;stroke-opacity:1;stroke-dasharray:none"
       id="path4502"
       sodipodi:cx="156.123"
       sodipodi:cy="191.07747"
       sodipodi:rx="19.011288"
       sodipodi:ry="19.587389"
       d="m 175.13429,191.07747 a 19.011288,19.587389 0 1 1 -38.02258,0 19.011288,19.587389 0 1 1 38.02258,0 z"
       transform="matrix(0.44733175,0,0,0.46358675,172.53919,266.23315)" />
    <path
       sodipodi:type="arc"
       style="fill:#5965d8;fill-opacity:1;fill-rule:nonzero;stroke:#0a0d67;stroke-width:1.61199999;stroke-linejoin:miter;stroke-miterlimit:4;stroke-opacity:1;stroke-dasharray:none"
       id="path4504"
       sodipodi:cx="156.123"
       sodipodi:cy="191.07747"
       sodipodi:rx="19.011288"
       sodipodi:ry="19.587389"
       d="m 175.13429,191.07747 a 19.011288,19.587389 0 1 1 -38.02258,0 19.011288,19.587389 0 1 1 38.02258,0 z"
       transform="matrix(2.5434939,0,0,2.4098616,-157.02433,108.07685)" />
    <path
       transform="matrix(0.88425058,0,0,0.85824323,139.46819,311.80411)"
       d="m 175.13429,191.07747 a 19.011288,19.587389 0 1 1 -38.02258,0 19.011288,19.587389 0 1 1 38.02258,0 z"
       sodipodi:ry="19.587389"
       sodipodi:rx="19.011288"
       sodipodi:cy="191.07747"
       sodipodi:cx="156.123"
       id="path4506"
       style="fill:#5965d8;fill-opacity:1;fill-rule:nonzero;stroke:#0a0d67;stroke-width:1.61199999;stroke-linejoin:miter;stroke-miterlimit:4;stroke-opacity:1;stroke-dasharray:none"
       sodipodi:type="arc" />
    <path
       inkscape:connector-curvature="0"
       id="path4548"
       d="m 386.42383,336.38456 c 0,0 173.74623,-114.14724 436.3859,-38.3858"
       style="fill:none;stroke:#000000;stroke-width:1px;stroke-linecap:butt;stroke-linejoin:miter;stroke-opacity:1" />
    <path
       inkscape:connector-curvature="0"
       id="path4550"
       d="m 822.21619,297.6479 c 0,0 2.14286,0.71429 5,5.35714 2.85714,4.64286 31.07143,77.85715 -75.35714,118.92858 0,0 -48.92858,22.14285 -53.57143,40.71428 -4.64286,18.57143 -35,75.71429 -106.78572,32.5 0,0 47.46006,77.86489 5.28619,131.90805 0,0 -41.35762,48.09195 -118.50047,63.09195 -77.14286,15 -102.5,-41.78571 -102.5,-41.78571 0,0 -6.07143,-24.28572 -5.71429,-45.71429 0.35714,-21.42857 2.14286,-31.42857 2.14286,-31.42857 0,0 -2.85715,12.5 -13.21429,10.35714 L 358.28762,297.6479 c 0,0 31.78571,5.35714 15.35714,26.07143"
       style="fill:none;stroke:#000000;stroke-width:1px;stroke-linecap:butt;stroke-linejoin:miter;stroke-opacity:1" />
    <path
       inkscape:connector-curvature="0"
       id="path4552"
       d="m 386.76976,336.21933 -13.21429,-13.125"
       style="fill:none;stroke:#000000;stroke-width:1px;stroke-linecap:butt;stroke-linejoin:miter;stroke-opacity:1" />
    <path
       inkscape:connector-curvature="0"
       id="path4554"
       d="m 492.99492,175.26522 c 0,0 3.53553,13.13199 -64.14469,59.09393 -67.68022,45.96194 -61.6193,65.15484 -61.6193,65.15484 l 0.0631,0.82075"
       style="fill:none;stroke:#000000;stroke-width:1px;stroke-linecap:butt;stroke-linejoin:miter;stroke-opacity:1" />
    <path
       inkscape:connector-curvature="0"
       id="path4556"
       d="m 387.19965,336.37893 c 0,0 -22.46789,86.41494 -14.4025,236.20085"
       style="fill:none;stroke:#000000;stroke-width:1px;stroke-linecap:butt;stroke-linejoin:miter;stroke-opacity:1" />
    <path
       inkscape:connector-curvature="0"
       id="path4558"
       d="m 416.00463,354.81412 c 0,0 220.64616,-95.05645 365.24718,-29.38109"
       style="fill:none;stroke:#000000;stroke-width:1px;stroke-linecap:butt;stroke-linejoin:miter;stroke-opacity:1" />
    <path
       inkscape:connector-curvature="0"
       id="path4560"
       d="m 780.67571,325.43303 c 0,0 0,40.32698 -46.66408,50.69677 -46.66407,10.3698 -74.89295,66.82756 -74.89295,66.82756 0,0 -3.4566,40.32698 -68.55586,13.25029 C 525.46356,429.13097 417.15683,354.81412 417.15683,354.81412"
       style="fill:none;stroke:#000000;stroke-width:1px;stroke-linecap:butt;stroke-linejoin:miter;stroke-opacity:1" />
    <path
       inkscape:connector-curvature="0"
       id="path4562"
       d="m 409.09143,421.06558 137.68782,80.07785 c 0,0 38.59867,31.68548 21.89179,87.56714 -16.70689,55.88167 -110.03504,65.09926 -110.03504,65.09926 0,0 -48.96847,2.8805 -53.57727,-63.94706 -4.60879,-66.82756 4.0327,-168.79719 4.0327,-168.79719 z"
       style="fill:none;stroke:#000000;stroke-width:1px;stroke-linecap:butt;stroke-linejoin:miter;stroke-opacity:1" />
    <path
       inkscape:connector-curvature="0"
       id="path4564"
       d="m 372.42789,443.25664 c 0.0404,-0.14003 0.22437,-2.63768 0.40871,-5.55033 2.09474,-33.09795 7.44137,-73.78241 12.76797,-97.15631 0.33188,-1.45633 0.66119,-2.92042 0.73181,-3.25353 0.12231,-0.57702 -0.18877,-0.91611 -6.57677,-7.16911 -5.26391,-5.15266 -6.66138,-6.62665 -6.50147,-6.8575 3.64507,-5.2623 4.48458,-7.37549 4.3421,-10.92981 -0.0657,-1.63915 -0.17308,-2.1374 -0.70235,-3.25892 -1.82384,-3.86471 -6.096,-6.95935 -12.7036,-9.20214 -1.76008,-0.59742 -4.66151,-1.38932 -5.09031,-1.38932 -0.23929,0 -0.16156,75.25668 0.12828,124.19509 l 0.12334,20.82648 6.49938,0 c 5.02449,0 6.51606,-0.0578 6.57291,-0.2546 z"
       style="fill:#000080;fill-opacity:1;stroke:#000077;stroke-width:0.60000002;stroke-linejoin:miter;stroke-miterlimit:4;stroke-opacity:1;stroke-dasharray:none" />
    <path
       inkscape:connector-curvature="0"
       id="path4566"
       d="m 371.03094,544.69431 c -0.5321,-14.12857 -0.68754,-43.26059 -0.31761,-59.52606 0.29787,-13.09748 0.82524,-26.35399 1.55499,-39.08805 l 0.13899,-2.4253 -0.66938,0.13388 c -0.36815,0.0736 -3.31597,0.13387 -6.55069,0.13387 l -5.88132,0 0,18.50125 c 0,10.17569 0.061,33.63986 0.13558,52.14259 l 0.13559,33.64134 5.79309,0 5.79308,0 -0.13232,-3.51352 0,0 z"
       style="fill:#000080;fill-opacity:1;stroke:#000077;stroke-width:0.52200001;stroke-linejoin:miter;stroke-miterlimit:4;stroke-opacity:1;stroke-dasharray:none" />
    <path
       inkscape:connector-curvature="0"
       id="path4568"
       d="m 363.5783,580.87779 c 2.98651,-0.80255 5.6447,-3.55006 7.19553,-7.43732 0.28526,-0.715 0.58132,-1.55207 0.65791,-1.86013 0.0766,-0.30807 0.27369,-0.56013 0.43799,-0.56013 0.24891,0 0.27872,-0.29726 0.17872,-1.78222 -0.14814,-2.19972 -0.46939,-9.22978 -0.62128,-13.59577 -0.0624,-1.7924 -0.16565,-4.10674 -0.22954,-5.14297 l -0.11617,-1.88406 -5.78593,0 -5.78593,0 0,16.16896 0,16.16897 0.45829,0.12281 c 0.77554,0.20784 2.43947,0.11652 3.61041,-0.19814 l 0,0 z"
       style="fill:#000080;fill-opacity:1;stroke:#000077;stroke-width:0.50599998;stroke-linejoin:miter;stroke-miterlimit:4;stroke-opacity:1;stroke-dasharray:none" />
    <path
       inkscape:connector-curvature="0"
       id="path4570"
       d="m 461.36924,691.39722 c 31.64421,-2.76908 69.3951,-16.25703 98.05046,-35.03226 16.06883,-10.52845 31.65779,-23.60369 37.75595,-31.66784 15.01224,-19.852 19.58509,-48.01601 12.83155,-79.029 -2.99289,-13.74368 -9.4657,-31.30997 -16.33083,-44.31956 -1.9858,-3.76315 -3.4407,-7.01193 -3.2331,-7.21952 0.20759,-0.2076 3.60574,1.3506 7.55144,3.46266 14.99855,8.02846 28.96634,12.10599 41.39258,12.0835 9.53412,-0.0173 15.6143,-1.34172 23.62711,-5.14676 14.7402,-6.99966 26.52776,-20.63438 32.93452,-38.0955 3.41998,-9.32086 4.35826,-10.93415 9.23208,-15.87372 11.00661,-11.1551 30.25334,-22.58348 58.77382,-34.89888 8.68063,-3.74837 22.34646,-11.64152 29.47851,-17.02627 l 4.41855,-3.33604 0,-51.54744 0,-51.54744 -9.98042,-2.26928 c -48.40096,-11.00511 -86.13265,-15.70809 -132.59697,-16.52723 -44.06499,-0.77685 -79.5811,2.18972 -120.17237,10.0377 -46.57721,9.0053 -95.22613,25.37102 -130.57924,43.92746 -16.44253,8.63049 -16.13431,8.37139 -17.58349,14.78182 -10.81813,47.85425 -16.72325,129.22975 -14.40911,198.56458 0.74254,22.2476 0.7325,30.06672 -0.046,35.84803 -1.53586,11.40526 -1.38572,39.82426 0.26719,50.57469 3.16882,20.60981 4.33356,23.63182 13.40437,34.77878 10.91389,13.41185 28.11403,23.57268 46.64955,27.5578 7.05088,1.51594 21.82851,2.50911 28.56387,1.91972 l 10e-6,0 z M 446.41437,653.141 c -24.57063,-6.34785 -39.16542,-28.05202 -42.02418,-62.49489 -1.50755,-18.1632 -1.90976,-52.17763 -0.96056,-81.23338 1.00284,-30.69758 3.87849,-82.74038 4.80692,-86.99433 l 0.58274,-2.67 68.84451,39.96352 c 67.54331,39.2082 68.9523,40.07711 74.5476,45.97362 21.33892,22.4876 27.45902,58.68434 15.09884,89.30057 -3.08202,7.63419 -7.63052,14.10582 -15.15551,21.56334 -17.18589,17.03183 -45.12852,29.54564 -81.00876,36.27892 -9.84868,1.8482 -18.3709,1.95593 -24.7316,0.31263 z M 615.75504,465.03461 c -26.82844,-5.13312 -78.51085,-31.85178 -153.17247,-79.18675 -22.70551,-14.39515 -46.87609,-30.71209 -46.62228,-31.47352 0.56602,-1.69808 38.8393,-15.49095 64.14769,-23.11747 45.70876,-13.77404 91.43371,-23.14377 135.24484,-27.7137 17.26936,-1.80137 69.03447,-2.04765 82.69488,-0.39344 31.8633,3.85849 54.59435,9.42292 78.21389,19.14631 5.88218,2.4215 6.15071,3.32475 3.77789,12.70795 -5.55638,21.97251 -19.11162,34.44424 -45.73638,42.08053 -11.68254,3.35069 -21.02463,7.65905 -29.5142,13.61128 -16.95311,11.88621 -40.17695,40.27593 -45.42477,55.529 -1.99242,5.79107 -2.86425,7.32718 -6.34569,11.18072 -3.14806,3.48452 -8.87793,6.77463 -13.83151,7.9421 -4.86609,1.14686 -16.62272,0.98981 -23.43189,-0.31301 l 0,0 z"
       style="fill:#313b91;fill-opacity:1;fill-rule:nonzero;stroke:#000077;stroke-width:1.61199999;stroke-linejoin:miter;stroke-miterlimit:4;stroke-opacity:1;stroke-dasharray:none" />
    <path
       inkscape:connector-curvature="0"
       id="path4572"
       d="m 806.10235,387.92672 c 14.79353,-14.76904 23.00743,-31.07681 25.08382,-49.80112 1.64912,-14.87135 -1.92509,-32.88514 -7.51258,-37.86291 -1.6514,-1.47119 -23.93616,-8.09527 -24.69184,-7.33958 -0.18017,0.18017 -0.23312,23.20845 -0.11768,51.17396 l 0.2099,50.84639 7.02838,-7.01674 z"
       style="fill:#313b91;fill-opacity:1;fill-rule:nonzero;stroke:#313b91;stroke-width:1.31334138;stroke-linejoin:miter;stroke-miterlimit:4;stroke-opacity:0.94117647;stroke-dasharray:none" />
    <path
       transform="matrix(-1,0,0,1,856.14476,152.79076)"
       d="m 175.13429,191.07747 a 19.011288,19.587389 0 1 1 -38.02258,0 19.011288,19.587389 0 1 1 38.02258,0 z"
       sodipodi:ry="19.587389"
       sodipodi:rx="19.011288"
       sodipodi:cy="191.07747"
       sodipodi:cx="156.123"
       id="path4574"
       style="fill:#5965d8;fill-opacity:1;fill-rule:nonzero;stroke:#0a0d67;stroke-width:1.61199999;stroke-linejoin:miter;stroke-miterlimit:4;stroke-opacity:1;stroke-dasharray:none"
       sodipodi:type="arc" />
    <path
       sodipodi:type="arc"
       style="fill:#5965d8;fill-opacity:1;fill-rule:nonzero;stroke:#0a0d67;stroke-width:1.61199999;stroke-linejoin:miter;stroke-miterlimit:4;stroke-opacity:1;stroke-dasharray:none"
       id="path4576"
       sodipodi:cx="156.123"
       sodipodi:cy="191.07747"
       sodipodi:rx="19.011288"
       sodipodi:ry="19.587389"
       d="m 175.13429,191.07747 a 19.011288,19.587389 0 1 1 -38.02258,0 19.011288,19.587389 0 1 1 38.02258,0 z"
       transform="matrix(-1.6981123,0,0,1.6775795,881.02559,31.385986)" />
    <path
       sodipodi:type="arc"
       style="fill:#5965d8;fill-opacity:1;fill-rule:nonzero;stroke:#0a0d67;stroke-width:1.61199999;stroke-linejoin:miter;stroke-miterlimit:4;stroke-opacity:1;stroke-dasharray:none"
       id="path4578"
       sodipodi:cx="156.123"
       sodipodi:cy="191.07747"
       sodipodi:rx="19.011288"
       sodipodi:ry="19.587389"
       d="m 175.13429,191.07747 a 19.011288,19.587389 0 1 1 -38.02258,0 19.011288,19.587389 0 1 1 38.02258,0 z"
       transform="matrix(-0.70912094,0,0,0.71767623,734.6867,291.99922)" />
    <path
       sodipodi:type="arc"
       style="fill:#5965d8;fill-opacity:1;fill-rule:nonzero;stroke:#0a0d67;stroke-width:1.61199999;stroke-linejoin:miter;stroke-miterlimit:4;stroke-opacity:1;stroke-dasharray:none"
       id="path4580"
       sodipodi:cx="156.123"
       sodipodi:cy="191.07747"
       sodipodi:rx="19.011288"
       sodipodi:ry="19.587389"
       d="m 175.13429,191.07747 a 19.011288,19.587389 0 1 1 -38.02258,0 19.011288,19.587389 0 1 1 38.02258,0 z"
       transform="matrix(-0.79698632,0,0,0.77354557,666.02225,234.08368)" />
    <path
       transform="matrix(-0.44733175,0,0,0.46358675,544.60557,266.23315)"
       d="m 175.13429,191.07747 a 19.011288,19.587389 0 1 1 -38.02258,0 19.011288,19.587389 0 1 1 38.02258,0 z"
       sodipodi:ry="19.587389"
       sodipodi:rx="19.011288"
       sodipodi:cy="191.07747"
       sodipodi:cx="156.123"
       id="path4582"
       style="fill:#5965d8;fill-opacity:1;fill-rule:nonzero;stroke:#0a0d67;stroke-width:1.61199999;stroke-linejoin:miter;stroke-miterlimit:4;stroke-opacity:1;stroke-dasharray:none"
       sodipodi:type="arc" />
    <path
       transform="matrix(-2.5434939,0,0,2.4098616,874.16909,108.07685)"
       d="m 175.13429,191.07747 a 19.011288,19.587389 0 1 1 -38.02258,0 19.011288,19.587389 0 1 1 38.02258,0 z"
       sodipodi:ry="19.587389"
       sodipodi:rx="19.011288"
       sodipodi:cy="191.07747"
       sodipodi:cx="156.123"
       id="path4584"
       style="fill:#5965d8;fill-opacity:1;fill-rule:nonzero;stroke:#0a0d67;stroke-width:1.61199999;stroke-linejoin:miter;stroke-miterlimit:4;stroke-opacity:1;stroke-dasharray:none"
       sodipodi:type="arc" />
    <path
       sodipodi:type="arc"
       style="fill:#5965d8;fill-opacity:1;fill-rule:nonzero;stroke:#0a0d67;stroke-width:1.61199999;stroke-linejoin:miter;stroke-miterlimit:4;stroke-opacity:1;stroke-dasharray:none"
       id="path4586"
       sodipodi:cx="156.123"
       sodipodi:cy="191.07747"
       sodipodi:rx="19.011288"
       sodipodi:ry="19.587389"
       d="m 175.13429,191.07747 a 19.011288,19.587389 0 1 1 -38.02258,0 19.011288,19.587389 0 1 1 38.02258,0 z"
       transform="matrix(-0.88425058,0,0,0.85824323,577.67657,311.80411)" />
    <path
       style="fill:none;stroke:#e5c7c7;stroke-width:2.10000000000000009;stroke-linecap:butt;stroke-linejoin:miter;stroke-opacity:1;stroke-miterlimit:4;stroke-dasharray:8.40000000000000036, 2.10000000000000009;stroke-dashoffset:0"
       d="m 497.174,-2.4920196 0,82.3822496 2.3044,506.39159 -0.5761,53.57727"
       id="path4588"
       inkscape:connector-curvature="0"
       transform="translate(-139,152.79076)" />
  </g>
</svg>
