<?xml version="1.0" encoding="UTF-8" standalone="no"?>
<!-- Created with Inkscape (http://www.inkscape.org/) -->

<svg
   xmlns:dc="http://purl.org/dc/elements/1.1/"
   xmlns:cc="http://creativecommons.org/ns#"
   xmlns:rdf="http://www.w3.org/1999/02/22-rdf-syntax-ns#"
   xmlns:svg="http://www.w3.org/2000/svg"
   xmlns="http://www.w3.org/2000/svg"
   xmlns:sodipodi="http://sodipodi.sourceforge.net/DTD/sodipodi-0.dtd"
   xmlns:inkscape="http://www.inkscape.org/namespaces/inkscape"
   width="2500"
   height="2000"
   id="svg6027"
   version="1.1"
   inkscape:version="0.48.3.1 r9886"
   sodipodi:docname="diagram2.svg">
  <defs
     id="defs6029">
    <marker
       inkscape:stockid="Arrow2Lstart"
       orient="auto"
       refY="0.0"
       refX="0.0"
       id="Arrow2Lstart"
       style="overflow:visible">
      <path
         id="path4848"
         style="fill-rule:evenodd;stroke-width:0.62500000;stroke-linejoin:round"
         d="M 8.7185878,4.0337352 L -2.2072895,0.016013256 L 8.7185884,-4.0017078 C 6.9730900,-1.6296469 6.9831476,1.6157441 8.7185878,4.0337352 z "
         transform="scale(1.1) translate(1,0)" />
    </marker>
    <marker
       inkscape:stockid="Arrow1Send"
       orient="auto"
       refY="0.0"
       refX="0.0"
       id="Arrow1Send"
       style="overflow:visible;">
      <path
         id="path4845"
         d="M 0.0,0.0 L 5.0,-5.0 L -12.5,0.0 L 5.0,5.0 L 0.0,0.0 z "
         style="fill-rule:evenodd;stroke:#000000;stroke-width:1.0pt;"
         transform="scale(0.2) rotate(180) translate(6,0)" />
    </marker>
    <marker
       inkscape:stockid="Arrow2Lend"
       orient="auto"
       refY="0.0"
       refX="0.0"
       id="Arrow2Lend"
       style="overflow:visible;">
      <path
         id="path4851"
         style="fill-rule:evenodd;stroke-width:0.62500000;stroke-linejoin:round;"
         d="M 8.7185878,4.0337352 L -2.2072895,0.016013256 L 8.7185884,-4.0017078 C 6.9730900,-1.6296469 6.9831476,1.6157441 8.7185878,4.0337352 z "
         transform="scale(1.1) rotate(180) translate(1,0)" />
    </marker>
    <marker
       inkscape:stockid="Arrow1Lend"
       orient="auto"
       refY="0.0"
       refX="0.0"
       id="Arrow1Lend"
       style="overflow:visible;">
      <path
         id="path4833"
         d="M 0.0,0.0 L 5.0,-5.0 L -12.5,0.0 L 5.0,5.0 L 0.0,0.0 z "
         style="fill-rule:evenodd;stroke:#000000;stroke-width:1.0pt;"
         transform="scale(0.8) rotate(180) translate(12.5,0)" />
    </marker>
    <marker
       inkscape:stockid="Arrow2Send"
       orient="auto"
       refY="0.0"
       refX="0.0"
       id="Arrow2Send"
       style="overflow:visible;">
      <path
         id="path4863"
         style="fill-rule:evenodd;stroke-width:0.62500000;stroke-linejoin:round;"
         d="M 8.7185878,4.0337352 L -2.2072895,0.016013256 L 8.7185884,-4.0017078 C 6.9730900,-1.6296469 6.9831476,1.6157441 8.7185878,4.0337352 z "
         transform="scale(0.3) rotate(180) translate(-2.3,0)" />
    </marker>
    <marker
       inkscape:stockid="Arrow2Mend"
       orient="auto"
       refY="0.0"
       refX="0.0"
       id="Arrow2Mend"
       style="overflow:visible;">
      <path
         id="path4857"
         style="fill-rule:evenodd;stroke-width:0.62500000;stroke-linejoin:round;"
         d="M 8.7185878,4.0337352 L -2.2072895,0.016013256 L 8.7185884,-4.0017078 C 6.9730900,-1.6296469 6.9831476,1.6157441 8.7185878,4.0337352 z "
         transform="scale(0.6) rotate(180) translate(0,0)" />
    </marker>
    <inkscape:perspective
       sodipodi:type="inkscape:persp3d"
       inkscape:vp_x="0 : 1125 : 1"
       inkscape:vp_y="0 : 1000 : 0"
       inkscape:vp_z="3000 : 1125 : 1"
       inkscape:persp3d-origin="1500 : 750 : 1"
       id="perspective6120" />
  </defs>
  <sodipodi:namedview
     id="base"
     pagecolor="#ffffff"
     bordercolor="#666666"
     borderopacity="1.0"
     inkscape:pageopacity="0.0"
     inkscape:pageshadow="2"
     inkscape:zoom="0.33997694"
     inkscape:cx="1250"
     inkscape:cy="985.31008"
     inkscape:document-units="px"
     inkscape:current-layer="layer1"
     showgrid="false"
     inkscape:window-width="1335"
     inkscape:window-height="1026"
     inkscape:window-x="65"
     inkscape:window-y="24"
     inkscape:window-maximized="1" />
  <metadata
     id="metadata6032">
    <rdf:RDF>
      <cc:Work
         rdf:about="">
        <dc:format>image/svg+xml</dc:format>
        <dc:type
           rdf:resource="http://purl.org/dc/dcmitype/StillImage" />
        <dc:title></dc:title>
      </cc:Work>
    </rdf:RDF>
  </metadata>
  <g
     inkscape:label="Ebene 1"
     inkscape:groupmode="layer"
     id="layer1"
     transform="translate(0,947.6378)">
    <flowRoot
       xml:space="preserve"
       id="flowRoot6136"
       style="font-size:40px;font-style:normal;font-weight:normal;line-height:125%;letter-spacing:0px;word-spacing:0px;fill:#000000;fill-opacity:1;stroke:none;font-family:Sans"
       transform="translate(-210.08594,-981.77124)"><flowRegion
         id="flowRegion6138"><rect
           id="rect6140"
           width="114.28572"
           height="205.71428"
           x="451.42856"
           y="638.57141" /></flowRegion><flowPara
         id="flowPara6142"
         style="font-size:144px">a</flowPara></flowRoot>    <flowRoot
       transform="translate(-214.51562,-481.77124)"
       style="font-size:40px;font-style:normal;font-weight:normal;line-height:125%;letter-spacing:0px;word-spacing:0px;fill:#000000;fill-opacity:1;stroke:none;font-family:Sans"
       id="flowRoot6144"
       xml:space="preserve"><flowRegion
         id="flowRegion6146"><rect
           y="638.57141"
           x="451.42856"
           height="205.71428"
           width="114.28572"
           id="rect6148" /></flowRegion><flowPara
         style="font-size:144px"
         id="flowPara6150">b</flowPara></flowRoot>    <flowRoot
       xml:space="preserve"
       id="flowRoot6152"
       style="font-size:40px;font-style:normal;font-weight:normal;line-height:125%;letter-spacing:0px;word-spacing:0px;fill:#000000;fill-opacity:1;stroke:none;font-family:Sans"
       transform="translate(-209.38281,18.228758)"><flowRegion
         id="flowRegion6154"><rect
           id="rect6156"
           width="114.28572"
           height="205.71428"
           x="451.42856"
           y="638.57141" /></flowRegion><flowPara
         id="flowPara6158"
         style="font-size:144px">c</flowPara></flowRoot>    <path
       sodipodi:type="arc"
       style="fill:#000000;fill-opacity:1;stroke:#000000;stroke-width:10;stroke-linecap:butt;stroke-miterlimit:4;stroke-opacity:1;stroke-dasharray:none;stroke-dashoffset:0"
       id="path6160"
       sodipodi:cx="1565.7142"
       sodipodi:cy="575.71429"
       sodipodi:rx="234.28572"
       sodipodi:ry="234.28572"
       d="m 1800,575.71429 c 0,129.39244 -104.8933,234.28573 -234.2858,234.28573 -129.3924,0 -234.2857,-104.89329 -234.2857,-234.28573 0,-129.39243 104.8933,-234.28572 234.2857,-234.28572 129.3925,0 234.2858,104.89329 234.2858,234.28572 z"
       transform="matrix(0.08358209,0,0,0.08358209,639.13433,234.2428)" />
    <path
       transform="matrix(0.08358209,0,0,0.08358209,1639.1343,-265.7572)"
       d="m 1800,575.71429 c 0,129.39244 -104.8933,234.28573 -234.2858,234.28573 -129.3924,0 -234.2857,-104.89329 -234.2857,-234.28573 0,-129.39243 104.8933,-234.28572 234.2857,-234.28572 129.3925,0 234.2858,104.89329 234.2858,234.28572 z"
       sodipodi:ry="234.28572"
       sodipodi:rx="234.28572"
       sodipodi:cy="575.71429"
       sodipodi:cx="1565.7142"
       id="path6670"
       style="fill:#000000;fill-opacity:1;stroke:#000000;stroke-width:10;stroke-linecap:butt;stroke-miterlimit:4;stroke-opacity:1;stroke-dasharray:none;stroke-dashoffset:0"
       sodipodi:type="arc" />
    <path
       sodipodi:type="arc"
       style="fill:#000000;fill-opacity:1;stroke:#000000;stroke-width:10;stroke-linecap:butt;stroke-miterlimit:4;stroke-opacity:1;stroke-dasharray:none;stroke-dashoffset:0"
       id="path6672"
       sodipodi:cx="1565.7142"
       sodipodi:cy="575.71429"
       sodipodi:rx="234.28572"
       sodipodi:ry="234.28572"
       d="m 1800,575.71429 c 0,129.39244 -104.8933,234.28573 -234.2858,234.28573 -129.3924,0 -234.2857,-104.89329 -234.2857,-234.28573 0,-129.39243 104.8933,-234.28572 234.2857,-234.28572 129.3925,0 234.2858,104.89329 234.2858,234.28572 z"
       transform="matrix(0.08358209,0,0,0.08358209,2139.1343,-265.7572)" />
    <path
       transform="matrix(0.08358209,0,0,0.08358209,1139.1343,-265.7572)"
       d="m 1800,575.71429 c 0,129.39244 -104.8933,234.28573 -234.2858,234.28573 -129.3924,0 -234.2857,-104.89329 -234.2857,-234.28573 0,-129.39243 104.8933,-234.28572 234.2857,-234.28572 129.3925,0 234.2858,104.89329 234.2858,234.28572 z"
       sodipodi:ry="234.28572"
       sodipodi:rx="234.28572"
       sodipodi:cy="575.71429"
       sodipodi:cx="1565.7142"
       id="path6678"
       style="fill:#000000;fill-opacity:1;stroke:#000000;stroke-width:10;stroke-linecap:butt;stroke-miterlimit:4;stroke-opacity:1;stroke-dasharray:none;stroke-dashoffset:0"
       sodipodi:type="arc" />
    <path
       sodipodi:type="arc"
       style="fill:#000000;fill-opacity:1;stroke:#000000;stroke-width:10;stroke-linecap:butt;stroke-miterlimit:4;stroke-opacity:1;stroke-dasharray:none;stroke-dashoffset:0"
       id="path6680"
       sodipodi:cx="1565.7142"
       sodipodi:cy="575.71429"
       sodipodi:rx="234.28572"
       sodipodi:ry="234.28572"
       d="m 1800,575.71429 c 0,129.39244 -104.8933,234.28573 -234.2858,234.28573 -129.3924,0 -234.2857,-104.89329 -234.2857,-234.28573 0,-129.39243 104.8933,-234.28572 234.2857,-234.28572 129.3925,0 234.2858,104.89329 234.2858,234.28572 z"
       transform="matrix(0.08358209,0,0,0.08358209,639.13433,-265.7572)" />
    <path
       transform="matrix(0.08358209,0,0,0.08358209,1139.1343,234.2428)"
       d="m 1800,575.71429 c 0,129.39244 -104.8933,234.28573 -234.2858,234.28573 -129.3924,0 -234.2857,-104.89329 -234.2857,-234.28573 0,-129.39243 104.8933,-234.28572 234.2857,-234.28572 129.3925,0 234.2858,104.89329 234.2858,234.28572 z"
       sodipodi:ry="234.28572"
       sodipodi:rx="234.28572"
       sodipodi:cy="575.71429"
       sodipodi:cx="1565.7142"
       id="path6682"
       style="fill:#000000;fill-opacity:1;stroke:#000000;stroke-width:10;stroke-linecap:butt;stroke-miterlimit:4;stroke-opacity:1;stroke-dasharray:none;stroke-dashoffset:0"
       sodipodi:type="arc" />
    <path
       sodipodi:type="arc"
       style="fill:#000000;fill-opacity:1;stroke:#000000;stroke-width:10;stroke-linecap:butt;stroke-miterlimit:4;stroke-opacity:1;stroke-dasharray:none;stroke-dashoffset:0"
       id="path6684"
       sodipodi:cx="1565.7142"
       sodipodi:cy="575.71429"
       sodipodi:rx="234.28572"
       sodipodi:ry="234.28572"
       d="m 1800,575.71429 c 0,129.39244 -104.8933,234.28573 -234.2858,234.28573 -129.3924,0 -234.2857,-104.89329 -234.2857,-234.28573 0,-129.39243 104.8933,-234.28572 234.2857,-234.28572 129.3925,0 234.2858,104.89329 234.2858,234.28572 z"
       transform="matrix(0.08358209,0,0,0.08358209,1639.1343,234.2428)" />
    <path
       transform="matrix(0.08358209,0,0,0.08358209,2139.1343,234.2428)"
       d="m 1800,575.71429 c 0,129.39244 -104.8933,234.28573 -234.2858,234.28573 -129.3924,0 -234.2857,-104.89329 -234.2857,-234.28573 0,-129.39243 104.8933,-234.28572 234.2857,-234.28572 129.3925,0 234.2858,104.89329 234.2858,234.28572 z"
       sodipodi:ry="234.28572"
       sodipodi:rx="234.28572"
       sodipodi:cy="575.71429"
       sodipodi:cx="1565.7142"
       id="path6686"
       style="fill:#000000;fill-opacity:1;stroke:#000000;stroke-width:10;stroke-linecap:butt;stroke-miterlimit:4;stroke-opacity:1;stroke-dasharray:none;stroke-dashoffset:0"
       sodipodi:type="arc" />
    <path
       sodipodi:type="arc"
       style="fill:#000000;fill-opacity:1;stroke:#000000;stroke-width:10;stroke-linecap:butt;stroke-miterlimit:4;stroke-opacity:1;stroke-dasharray:none;stroke-dashoffset:0"
       id="path6688"
       sodipodi:cx="1565.7142"
       sodipodi:cy="575.71429"
       sodipodi:rx="234.28572"
       sodipodi:ry="234.28572"
       d="m 1800,575.71429 c 0,129.39244 -104.8933,234.28573 -234.2858,234.28573 -129.3924,0 -234.2857,-104.89329 -234.2857,-234.28573 0,-129.39243 104.8933,-234.28572 234.2857,-234.28572 129.3925,0 234.2858,104.89329 234.2858,234.28572 z"
       transform="matrix(0.08358209,0,0,0.08358209,2139.1343,734.2428)" />
    <path
       transform="matrix(0.08358209,0,0,0.08358209,1639.1343,734.2428)"
       d="m 1800,575.71429 c 0,129.39244 -104.8933,234.28573 -234.2858,234.28573 -129.3924,0 -234.2857,-104.89329 -234.2857,-234.28573 0,-129.39243 104.8933,-234.28572 234.2857,-234.28572 129.3925,0 234.2858,104.89329 234.2858,234.28572 z"
       sodipodi:ry="234.28572"
       sodipodi:rx="234.28572"
       sodipodi:cy="575.71429"
       sodipodi:cx="1565.7142"
       id="path6690"
       style="fill:#000000;fill-opacity:1;stroke:#000000;stroke-width:10;stroke-linecap:butt;stroke-miterlimit:4;stroke-opacity:1;stroke-dasharray:none;stroke-dashoffset:0"
       sodipodi:type="arc" />
    <path
       sodipodi:type="arc"
       style="fill:#000000;fill-opacity:1;stroke:#000000;stroke-width:10;stroke-linecap:butt;stroke-miterlimit:4;stroke-opacity:1;stroke-dasharray:none;stroke-dashoffset:0"
       id="path6692"
       sodipodi:cx="1565.7142"
       sodipodi:cy="575.71429"
       sodipodi:rx="234.28572"
       sodipodi:ry="234.28572"
       d="m 1800,575.71429 c 0,129.39244 -104.8933,234.28573 -234.2858,234.28573 -129.3924,0 -234.2857,-104.89329 -234.2857,-234.28573 0,-129.39243 104.8933,-234.28572 234.2857,-234.28572 129.3925,0 234.2858,104.89329 234.2858,234.28572 z"
       transform="matrix(0.08358209,0,0,0.08358209,1139.1343,734.2428)" />
    <path
       transform="matrix(0.08358209,0,0,0.08358209,639.13433,734.2428)"
       d="m 1800,575.71429 c 0,129.39244 -104.8933,234.28573 -234.2858,234.28573 -129.3924,0 -234.2857,-104.89329 -234.2857,-234.28573 0,-129.39243 104.8933,-234.28572 234.2857,-234.28572 129.3925,0 234.2858,104.89329 234.2858,234.28572 z"
       sodipodi:ry="234.28572"
       sodipodi:rx="234.28572"
       sodipodi:cy="575.71429"
       sodipodi:cx="1565.7142"
       id="path6694"
       style="fill:#000000;fill-opacity:1;stroke:#000000;stroke-width:10;stroke-linecap:butt;stroke-miterlimit:4;stroke-opacity:1;stroke-dasharray:none;stroke-dashoffset:0"
       sodipodi:type="arc" />
    <flowRoot
       transform="translate(282.74219,-1479.7322)"
       style="font-size:40px;font-style:normal;font-weight:normal;line-height:125%;letter-spacing:0px;word-spacing:0px;fill:#000000;fill-opacity:1;stroke:none;font-family:Sans"
       id="flowRoot6704"
       xml:space="preserve"><flowRegion
         id="flowRegion6706"><rect
           y="638.57141"
           x="451.42856"
           height="205.71428"
           width="114.28572"
           id="rect6708" /></flowRegion><flowPara
         style="font-size:144px"
         id="flowPara6710">1</flowPara></flowRoot>    <flowRoot
       xml:space="preserve"
       id="flowRoot6712"
       style="font-size:40px;font-style:normal;font-weight:normal;line-height:125%;letter-spacing:0px;word-spacing:0px;fill:#000000;fill-opacity:1;stroke:none;font-family:Sans"
       transform="translate(788.01562,-1479.7322)"><flowRegion
         id="flowRegion6714"><rect
           id="rect6716"
           width="114.28572"
           height="205.71428"
           x="451.42856"
           y="638.57141" /></flowRegion><flowPara
         id="flowPara6718"
         style="font-size:144px">2</flowPara></flowRoot>    <flowRoot
       transform="translate(1287.5938,-1481.7712)"
       style="font-size:40px;font-style:normal;font-weight:normal;line-height:125%;letter-spacing:0px;word-spacing:0px;fill:#000000;fill-opacity:1;stroke:none;font-family:Sans"
       id="flowRoot6720"
       xml:space="preserve"><flowRegion
         id="flowRegion6722"><rect
           y="638.57141"
           x="451.42856"
           height="205.71428"
           width="114.28572"
           id="rect6724" /></flowRegion><flowPara
         style="font-size:144px"
         id="flowPara6726">3</flowPara></flowRoot>    <flowRoot
       xml:space="preserve"
       id="flowRoot6728"
       style="font-size:40px;font-style:normal;font-weight:normal;line-height:125%;letter-spacing:0px;word-spacing:0px;fill:#000000;fill-opacity:1;stroke:none;font-family:Sans"
       transform="translate(1791.5313,-1479.7322)"><flowRegion
         id="flowRegion6730"><rect
           id="rect6732"
           width="114.28572"
           height="205.71428"
           x="451.42856"
           y="638.57141" /></flowRegion><flowPara
         id="flowPara6734"
         style="font-size:144px">4</flowPara></flowRoot>    <path
       style="fill:none;stroke:#000000;stroke-width:10;stroke-linecap:butt;stroke-linejoin:bevel;stroke-miterlimit:4;stroke-opacity:1;stroke-dasharray:none;marker-start:url(#Arrow2Lstart);marker-mid:none;marker-end:url(#Arrow2Lend)"
       d="m 785.34739,-276.64173 c 226.48591,-150.01019 420.61671,-32.35514 420.61671,-32.35514 l 44.1207,29.41376"
       id="path6757"
       inkscape:connector-curvature="0"
       sodipodi:nodetypes="ccc" />
    <path
       sodipodi:nodetypes="ccc"
       inkscape:connector-curvature="0"
       id="path10529"
       d="m 1782.4739,-273.70036 c 226.4859,-150.01018 420.6167,-32.35514 420.6167,-32.35514 l 44.1207,29.41376"
       style="fill:none;stroke:#000000;stroke-width:10;stroke-linecap:butt;stroke-linejoin:bevel;stroke-miterlimit:4;stroke-opacity:1;stroke-dasharray:none;marker-start:url(#Arrow2Lstart);marker-mid:none;marker-end:url(#Arrow2Lend)" />
    <path
       sodipodi:nodetypes="ccc"
       inkscape:connector-curvature="0"
       id="path10531"
       d="m 1282.44,726.36746 c 226.4859,-150.01018 420.6167,-32.35514 420.6167,-32.35514 l 44.1207,29.41376"
       style="fill:none;stroke:#000000;stroke-width:10;stroke-linecap:butt;stroke-linejoin:bevel;stroke-miterlimit:4;stroke-opacity:1;stroke-dasharray:none;marker-start:url(#Arrow2Lstart);marker-mid:none;marker-end:url(#Arrow2Lend)" />
    <path
       style="fill:none;stroke:#000000;stroke-width:10;stroke-linecap:butt;stroke-linejoin:bevel;stroke-miterlimit:4;stroke-opacity:1;stroke-dasharray:none;marker-start:url(#Arrow2Lstart);marker-mid:none;marker-end:url(#Arrow2Lend)"
       d="M 786.24277,741.83845 C 1499.5185,269.40899 2110.8978,639.9419 2110.8978,639.9419 l 138.95,92.63322"
       id="path10533"
       inkscape:connector-curvature="0"
       sodipodi:nodetypes="ccc" />
    <path
       sodipodi:nodetypes="ccc"
       inkscape:connector-curvature="0"
       id="path10535"
       d="M 802.02253,231.62022 C 1258.7269,-70.872353 1650.1877,166.37673 1650.1877,166.37673 l 88.9685,59.31226"
       style="fill:none;stroke:#000000;stroke-width:10;stroke-linecap:butt;stroke-linejoin:bevel;stroke-miterlimit:4;stroke-opacity:1;stroke-dasharray:none;marker-start:url(#Arrow2Lstart);marker-mid:none;marker-end:url(#Arrow2Lend)" />
    <path
       style="fill:none;stroke:#000000;stroke-width:10;stroke-linecap:butt;stroke-linejoin:bevel;stroke-miterlimit:4;stroke-opacity:1;stroke-dasharray:none;marker-start:url(#Arrow2Lstart);marker-mid:none;marker-end:url(#Arrow2Lend)"
       d="m 1299.1151,228.67884 c 456.7043,-302.492569 848.1651,-65.24349 848.1651,-65.24349 l 88.9685,59.31226"
       id="path10537"
       inkscape:connector-curvature="0"
       sodipodi:nodetypes="ccc" />
  </g>
</svg>
