<?xml version="1.0" encoding="UTF-8" standalone="no"?>
<!-- Created with Inkscape (http://www.inkscape.org/) -->

<svg
   xmlns:dc="http://purl.org/dc/elements/1.1/"
   xmlns:cc="http://creativecommons.org/ns#"
   xmlns:rdf="http://www.w3.org/1999/02/22-rdf-syntax-ns#"
   xmlns:svg="http://www.w3.org/2000/svg"
   xmlns="http://www.w3.org/2000/svg"
   xmlns:sodipodi="http://sodipodi.sourceforge.net/DTD/sodipodi-0.dtd"
   xmlns:inkscape="http://www.inkscape.org/namespaces/inkscape"
   width="2450"
   height="830"
   id="svg3071"
   version="1.1"
   inkscape:version="0.48.4 r9939"
   sodipodi:docname="air rods.svg">
  <defs
     id="defs3073">
    <inkscape:perspective
       sodipodi:type="inkscape:persp3d"
       inkscape:vp_x="0 : 526.18109 : 1"
       inkscape:vp_y="0 : 1000 : 0"
       inkscape:vp_z="744.09448 : 526.18109 : 1"
       inkscape:persp3d-origin="372.04724 : 350.78739 : 1"
       id="perspective3079" />
  </defs>
  <sodipodi:namedview
     id="base"
     pagecolor="#ffffff"
     bordercolor="#666666"
     borderopacity="1.0"
     inkscape:pageopacity="0.0"
     inkscape:pageshadow="2"
     inkscape:zoom="0.85452318"
     inkscape:cx="428.8437"
     inkscape:cy="294.03746"
     inkscape:document-units="px"
     inkscape:current-layer="layer1"
     showgrid="false"
     inkscape:window-width="1366"
     inkscape:window-height="706"
     inkscape:window-x="-8"
     inkscape:window-y="-8"
     inkscape:window-maximized="1" />
  <metadata
     id="metadata3076">
    <rdf:RDF>
      <cc:Work
         rdf:about="">
        <dc:format>image/svg+xml</dc:format>
        <dc:type
           rdf:resource="http://purl.org/dc/dcmitype/StillImage" />
        <dc:title></dc:title>
      </cc:Work>
    </rdf:RDF>
  </metadata>
  <g
     inkscape:label="Layer 1"
     inkscape:groupmode="layer"
     id="layer1"
     transform="translate(0,-222.36218)">
    <rect
       style="fill:none;stroke:#000000;stroke-width:1.02941501;stroke-miterlimit:4;stroke-opacity:1;stroke-dasharray:none;stroke-dashoffset:0"
       id="rect3112"
       width="798.97058"
       height="78.970589"
       x="100.97327"
       y="352.4183" />
    <path
       style="fill:none;stroke:#000000;stroke-width:1.00006425;stroke-linecap:butt;stroke-linejoin:miter;stroke-miterlimit:4;stroke-opacity:1;stroke-dasharray:none"
       d="m 150.45858,321.9036 799.49994,-0.5"
       id="path3884"
       inkscape:connector-curvature="0"
       sodipodi:nodetypes="cc" />
    <path
       style="fill:none;stroke:#000000;stroke-width:0.91716874;stroke-linecap:butt;stroke-linejoin:miter;stroke-miterlimit:4;stroke-opacity:1;stroke-dasharray:none"
       d="m 100.45858,351.9036 50,-30"
       id="path3884-4"
       inkscape:connector-curvature="0"
       sodipodi:nodetypes="cc" />
    <path
       style="fill:none;stroke:#000000;stroke-width:0.91716874;stroke-linecap:butt;stroke-linejoin:miter;stroke-miterlimit:4;stroke-opacity:1;stroke-dasharray:none"
       d="m 300.45858,351.9036 50,-30"
       id="path3884-4-0"
       inkscape:connector-curvature="0"
       sodipodi:nodetypes="cc" />
    <path
       style="fill:none;stroke:#000000;stroke-width:0.91716874;stroke-linecap:butt;stroke-linejoin:miter;stroke-miterlimit:4;stroke-opacity:1;stroke-dasharray:none"
       d="m 500.45858,351.9036 50,-30"
       id="path3884-4-0-9"
       inkscape:connector-curvature="0"
       sodipodi:nodetypes="cc" />
    <path
       style="fill:none;stroke:#000000;stroke-width:0.91716874;stroke-linecap:butt;stroke-linejoin:miter;stroke-miterlimit:4;stroke-opacity:1;stroke-dasharray:none"
       d="m 700.45858,351.9036 50,-30"
       id="path3884-4-0-4"
       inkscape:connector-curvature="0"
       sodipodi:nodetypes="cc" />
    <path
       style="fill:none;stroke:#000000;stroke-width:0.91716874;stroke-linecap:butt;stroke-linejoin:miter;stroke-miterlimit:4;stroke-opacity:1;stroke-dasharray:none"
       d="m 900.45858,351.9036 50,-30"
       id="path3884-4-0-8"
       inkscape:connector-curvature="0"
       sodipodi:nodetypes="cc" />
    <path
       style="fill:none;stroke:#000000;stroke-width:0.91716874;stroke-linecap:butt;stroke-linejoin:miter;stroke-miterlimit:4;stroke-opacity:1;stroke-dasharray:none"
       d="m 950.45858,401.9036 0,-80"
       id="path3884-4-0-82"
       inkscape:connector-curvature="0"
       sodipodi:nodetypes="cc" />
    <path
       style="fill:none;stroke:#000000;stroke-width:0.91716874;stroke-linecap:butt;stroke-linejoin:miter;stroke-miterlimit:4;stroke-opacity:1;stroke-dasharray:none"
       d="m 900.45858,431.9036 50,-30"
       id="path3884-4-0-8-4"
       inkscape:connector-curvature="0"
       sodipodi:nodetypes="cc" />
    <path
       style="fill:none;stroke:#000000;stroke-width:0.91716874;stroke-linecap:butt;stroke-linejoin:miter;stroke-miterlimit:4;stroke-opacity:1;stroke-dasharray:none"
       d="m 700.45858,431.9036 0,-80"
       id="path3884-4-0-82-5"
       inkscape:connector-curvature="0"
       sodipodi:nodetypes="cc" />
    <path
       style="fill:none;stroke:#000000;stroke-width:0.91716874;stroke-linecap:butt;stroke-linejoin:miter;stroke-miterlimit:4;stroke-opacity:1;stroke-dasharray:none"
       d="m 500.45858,431.9036 0,-80"
       id="path3884-4-0-82-51"
       inkscape:connector-curvature="0"
       sodipodi:nodetypes="cc" />
    <path
       style="fill:none;stroke:#000000;stroke-width:0.91716874;stroke-linecap:butt;stroke-linejoin:miter;stroke-miterlimit:4;stroke-opacity:1;stroke-dasharray:none"
       d="m 300.45858,431.9036 0,-80"
       id="path3884-4-0-82-7"
       inkscape:connector-curvature="0"
       sodipodi:nodetypes="cc" />
    <path
       style="fill:#42de31;fill-opacity:1;fill-rule:nonzero;stroke:#000000;stroke-width:0;stroke-miterlimit:4;stroke-opacity:1;stroke-dasharray:none;stroke-dashoffset:0"
       d="m 101.6407,392.0998 0,-38.57143 98.92857,0 98.92857,0 0,38.57143 0,38.57143 -98.92857,0 -98.92857,0 0,-38.57143 z"
       id="path4123"
       inkscape:connector-curvature="0" />
    <path
       style="fill:#42de31;fill-opacity:1;fill-rule:nonzero;stroke:#000000;stroke-width:0;stroke-miterlimit:4;stroke-opacity:1;stroke-dasharray:none;stroke-dashoffset:0"
       d="m 300.92641,392.0998 0,-38.57143 99.28571,0 99.28572,0 0,38.57143 0,38.57143 -99.28572,0 -99.28571,0 0,-38.57143 z"
       id="path4125"
       inkscape:connector-curvature="0" />
    <path
       style="fill:#42de31;fill-opacity:1;fill-rule:nonzero;stroke:#000000;stroke-width:0;stroke-miterlimit:4;stroke-opacity:1;stroke-dasharray:none;stroke-dashoffset:0"
       d="m 500.92641,392.0998 0,-38.57143 99.28571,0 99.28572,0 0,38.57143 0,38.57143 -99.28572,0 -99.28571,0 0,-38.57143 z"
       id="path4127"
       inkscape:connector-curvature="0" />
    <path
       style="fill:#d0ed2f;fill-opacity:1;fill-rule:nonzero;stroke:#000000;stroke-width:0;stroke-miterlimit:4;stroke-opacity:1;stroke-dasharray:none;stroke-dashoffset:0"
       d="m 126.51756,337.09943 23.80544,-14.28534 98.69456,3.7e-4 98.69456,3.7e-4 -23.80543,14.28534 -23.80544,14.28535 -98.69456,-3.8e-4 -98.69457,-3.7e-4 23.80544,-14.28534 z"
       id="path4129"
       inkscape:connector-curvature="0" />
    <path
       style="fill:#a0e52d;fill-opacity:1;fill-rule:nonzero;stroke:#000000;stroke-width:0;stroke-miterlimit:4;stroke-opacity:1;stroke-dasharray:none;stroke-dashoffset:0"
       d="m 326.32956,337.21224 23.61743,-14.17252 99.23971,-0.51349 c 60.2517,-0.31175 98.95909,-0.2559 98.52542,0.14216 -0.39285,0.36061 -11.26401,6.96948 -24.15812,14.68639 l -23.44384,14.03074 -98.69902,-3.8e-4 -98.69902,-3.7e-4 23.61744,-14.17253 z"
       id="path4131"
       inkscape:connector-curvature="0" />
    <path
       style="fill:#a0e52d;fill-opacity:1;fill-rule:nonzero;stroke:#000000;stroke-width:0;stroke-miterlimit:4;stroke-opacity:1;stroke-dasharray:none;stroke-dashoffset:0"
       d="m 527.11942,336.73946 24.40729,-14.64471 98.39836,0.18109 98.39838,0.1811 -24.11432,14.46429 -24.11431,14.46429 -98.69135,-6.8e-4 -98.69135,-6.7e-4 24.4073,-14.64471 z"
       id="path4133"
       inkscape:connector-curvature="0" />
    <path
       style="fill:#a0e52e;fill-opacity:1;fill-rule:nonzero;stroke:#000000;stroke-width:0;stroke-miterlimit:4;stroke-opacity:1;stroke-dasharray:none;stroke-dashoffset:0"
       d="m 703.89288,350.7734 c 0.37321,-0.33667 11.2283,-6.92595 24.12241,-14.64286 l 23.44384,-14.03074 98.69902,6.7e-4 98.69901,6.8e-4 -24.40308,14.64218 -24.40307,14.64219 -98.41835,0 c -54.7127,0 -98.11701,-0.27183 -97.73978,-0.61212 z"
       id="path4135"
       inkscape:connector-curvature="0" />
    <path
       style="fill:#42de31;fill-opacity:1;fill-rule:nonzero;stroke:#000000;stroke-width:0;stroke-miterlimit:4;stroke-opacity:1;stroke-dasharray:none;stroke-dashoffset:0"
       d="m 701.35716,392.0998 0,-38.57143 98.92857,0 98.92858,0 0,38.57143 0,38.57143 -98.92858,0 -98.92857,0 0,-38.57143 z"
       id="path4137"
       inkscape:connector-curvature="0" />
    <path
       style="fill:#35b229;fill-opacity:1;fill-rule:nonzero;stroke:#000000;stroke-width:0;stroke-miterlimit:4;stroke-opacity:1;stroke-dasharray:none;stroke-dashoffset:0"
       d="m 900.66488,391.56409 0.022,-39.10715 23.9142,-14.28571 c 13.15281,-7.85714 24.23495,-14.39378 24.62698,-14.52585 0.46991,-0.15832 0.64985,13.09213 0.52808,38.88855 l -0.1847,39.1287 -24.15823,14.5043 c -13.28702,7.97736 -24.29595,14.5043 -24.46428,14.5043 -0.16834,0 -0.29616,-17.59821 -0.28406,-39.10714 z"
       id="path4139"
       inkscape:connector-curvature="0" />
    <path
       inkscape:connector-curvature="0"
       id="path5022"
       d="m 304.77393,350.50773 c 0.30572,-0.27595 10.56144,-6.51917 22.79049,-13.87382 l 22.23462,-13.37211 93.99099,-0.43993 c 51.69504,-0.24196 95.96582,-0.25223 98.3795,-0.0228 l 4.38852,0.41712 -23.0626,13.89664 -23.06259,13.89663 -98.1074,0 c -54.57434,0 -97.86074,-0.22262 -97.55153,-0.50171 z"
       style="fill:#d0ed2f;fill-opacity:1;fill-rule:nonzero;stroke:#000000;stroke-width:0;stroke-miterlimit:4;stroke-opacity:1;stroke-dasharray:none;stroke-dashoffset:0" />
    <path
       inkscape:connector-curvature="0"
       id="path5024"
       d="m 601.82428,351.73913 c -53.88918,-0.0814 -98.17708,-0.3447 -98.41754,-0.58512 -0.24046,-0.24042 31.60702,-0.37099 70.77218,-0.29016 95.2227,0.19652 126.91226,0.37999 126.21082,0.73072 -0.32182,0.1609 -44.67628,0.22596 -98.56546,0.14456 z"
       style="fill:#d0ed2f;fill-opacity:1;fill-rule:nonzero;stroke:#000000;stroke-width:0;stroke-miterlimit:4;stroke-opacity:1;stroke-dasharray:none;stroke-dashoffset:0" />
    <path
       inkscape:connector-curvature="0"
       id="path5026"
       d="m 512.17154,351.06293 -8.00073,-0.34605 23.71968,-14.1892 23.71967,-14.1892 89.31039,0.002 c 49.12071,0.001 93.06311,0.17382 97.64976,0.38365 l 8.33938,0.3815 -23.51295,14.09812 -23.51295,14.09811 -89.85576,0.0535 c -49.42067,0.0294 -93.45609,-0.10223 -97.85649,-0.29256 l 0,0 z"
       style="fill:#d0ed2f;fill-opacity:1;fill-rule:nonzero;stroke:#000000;stroke-width:0;stroke-miterlimit:4;stroke-opacity:1;stroke-dasharray:none;stroke-dashoffset:0" />
    <path
       inkscape:connector-curvature="0"
       id="path5028"
       d="m 709.48249,350.57251 -4.36505,-0.20442 3.77993,-2.39074 c 2.07895,-1.31491 12.49707,-7.62234 23.15137,-14.01652 l 19.37146,-11.62577 98.09356,0.14799 98.09357,0.14799 -23.64934,14.1892 -23.64934,14.1892 -93.23056,-0.11626 c -51.27681,-0.0639 -95.19483,-0.20825 -97.5956,-0.32067 z"
       style="fill:#d0ed2f;fill-opacity:1;fill-rule:nonzero;stroke:#000000;stroke-width:0;stroke-miterlimit:4;stroke-opacity:1;stroke-dasharray:none;stroke-dashoffset:0" />
    <path
       inkscape:connector-curvature="0"
       id="path5030"
       d="m 702.75948,521.36096 c 0.30572,-0.2772 10.96054,-6.72893 23.67738,-14.33719 l 23.12151,-13.83319 98.44477,0.14799 98.44478,0.14799 -22.85271,13.70152 c -12.56898,7.53584 -22.98833,13.92098 -23.1541,14.1892 -0.16577,0.26823 -44.83703,0.48768 -99.26945,0.48768 -55.39916,0 -98.72334,-0.22188 -98.41218,-0.504 z"
       style="fill:#d0ed2f;fill-opacity:1;fill-rule:nonzero;stroke:#000000;stroke-width:0;stroke-miterlimit:4;stroke-opacity:1;stroke-dasharray:none;stroke-dashoffset:0" />
    <path
       inkscape:connector-curvature="0"
       id="path5032"
       d="m 925.66415,507.52923 23.88974,-14.33523 98.69321,4.8e-4 98.6933,4.8e-4 -23.1123,13.85353 c -12.7118,7.61944 -23.2001,14.07019 -23.3074,14.335 -0.1072,0.26481 -44.869,0.48136 -99.4706,0.48122 l -99.27568,-2.5e-4 23.88973,-14.33523 z"
       style="fill:#d0ed2f;fill-opacity:1;fill-rule:nonzero;stroke:#000000;stroke-width:0;stroke-miterlimit:4;stroke-opacity:1;stroke-dasharray:none;stroke-dashoffset:0" />
    <path
       inkscape:connector-curvature="0"
       id="path5034"
       d="m 1103.1369,521.08288 c 0.6348,-0.43014 11.3346,-6.88187 23.7774,-14.33718 l 22.6233,-13.55511 98.4458,0.14799 98.4457,0.14798 -23.6295,14.1892 -23.6296,14.1892 -98.5936,0 c -82.4678,0 -98.4049,-0.12792 -97.4395,-0.78208 z"
       style="fill:#d0ed2f;fill-opacity:1;fill-rule:nonzero;stroke:#000000;stroke-width:0;stroke-miterlimit:4;stroke-opacity:1;stroke-dasharray:none;stroke-dashoffset:0" />
    <path
       inkscape:connector-curvature="0"
       id="path5036"
       d="m 1303.2485,521.08288 c 0.6348,-0.43014 11.3346,-6.88187 23.7774,-14.33718 l 22.6233,-13.55511 98.4875,0.14799 98.4874,0.14798 -22.5177,13.39882 c -12.3848,7.36935 -22.9334,13.75449 -23.4415,14.1892 -0.7679,0.65699 -17.6015,0.79038 -99.7472,0.79038 -82.6594,0 -98.6346,-0.12792 -97.6692,-0.78208 z"
       style="fill:#d0ed2f;fill-opacity:1;fill-rule:nonzero;stroke:#000000;stroke-width:0;stroke-miterlimit:4;stroke-opacity:1;stroke-dasharray:none;stroke-dashoffset:0" />
    <path
       inkscape:connector-curvature="0"
       id="path5038"
       d="m 102.80525,521.36096 c 0.30573,-0.2772 10.96055,-6.72893 23.67738,-14.33719 l 23.12151,-13.83319 98.44478,0.14799 98.44477,0.14799 -22.8527,13.70152 c -12.56899,7.53584 -22.98833,13.92098 -23.1541,14.1892 -0.16577,0.26823 -44.83703,0.48768 -99.26946,0.48768 -55.39916,0 -98.72333,-0.22188 -98.41218,-0.504 z"
       style="fill:#d0ed2f;fill-opacity:1;fill-rule:nonzero;stroke:#000000;stroke-width:0;stroke-miterlimit:4;stroke-opacity:1;stroke-dasharray:none;stroke-dashoffset:0" />
    <path
       inkscape:connector-curvature="0"
       id="path5040"
       d="m 325.78423,507.53266 23.9131,-14.3323 98.59299,-0.003 98.593,-0.003 -23.11231,13.85353 c -12.71177,7.61944 -23.20007,14.07019 -23.30734,14.335 -0.10728,0.26481 -44.83448,0.48147 -99.39379,0.48147 l -99.19875,0 23.9131,-14.3323 z"
       style="fill:#d0ed2f;fill-opacity:1;fill-rule:nonzero;stroke:#000000;stroke-width:0;stroke-miterlimit:4;stroke-opacity:1;stroke-dasharray:none;stroke-dashoffset:0" />
    <path
       inkscape:connector-curvature="0"
       id="path5042"
       d="m 503.21983,521.08288 c 0.63479,-0.43014 11.33464,-6.88187 23.77744,-14.33718 l 22.62328,-13.55511 98.44573,0.14799 98.44574,0.14798 -23.62952,14.1892 -23.62953,14.1892 -98.59365,0 c -82.46774,0 -98.40487,-0.12792 -97.43949,-0.78208 z"
       style="fill:#d0ed2f;fill-opacity:1;fill-rule:nonzero;stroke:#000000;stroke-width:0;stroke-miterlimit:4;stroke-opacity:1;stroke-dasharray:none;stroke-dashoffset:0" />
    <path
       inkscape:connector-curvature="0"
       id="path5044"
       d="m 503.81812,870.92413 c 0.30573,-0.27615 10.73635,-6.59623 23.17915,-14.04463 l 22.62328,-13.54254 98.4546,0.14798 98.45461,0.14799 -23.16854,13.89664 -23.16853,13.89664 -98.46522,0 c -54.82786,0 -98.21887,-0.22251 -97.90935,-0.50208 z"
       style="fill:#d0ed2f;fill-opacity:1;fill-rule:nonzero;stroke:#000000;stroke-width:0;stroke-miterlimit:4;stroke-opacity:1;stroke-dasharray:none;stroke-dashoffset:0" />
    <path
       inkscape:connector-curvature="0"
       id="path5046"
       d="m 326.34275,857.3798 23.41687,-14.04285 98.43576,0.14799 98.43575,0.14799 -23.15929,13.89664 -23.1593,13.89664 -98.69333,-0.002 -98.69333,-0.002 23.41687,-14.04284 z"
       style="fill:#d0ed2f;fill-opacity:1;fill-rule:nonzero;stroke:#000000;stroke-width:0;stroke-miterlimit:4;stroke-opacity:1;stroke-dasharray:none;stroke-dashoffset:0" />
    <path
       inkscape:connector-curvature="0"
       id="path5048"
       d="m 126.23115,857.3798 23.41687,-14.04285 98.43576,0.14799 98.43575,0.14799 -23.15929,13.89664 -23.1593,13.89664 -98.69333,-0.002 -98.69333,-0.002 23.41687,-14.04284 z"
       style="fill:#d0ed2f;fill-opacity:1;fill-rule:nonzero;stroke:#000000;stroke-width:0;stroke-miterlimit:4;stroke-opacity:1;stroke-dasharray:none;stroke-dashoffset:0" />
    <path
       inkscape:connector-curvature="0"
       id="path5050"
       d="m 726.36478,857.38329 23.40487,-14.04046 98.59299,0 98.593,0 -23.40487,14.04046 -23.40486,14.04045 -98.593,0 -98.59299,0 23.40486,-14.04045 z"
       style="fill:#d0ed2f;fill-opacity:1;fill-rule:nonzero;stroke:#000000;stroke-width:0;stroke-miterlimit:4;stroke-opacity:1;stroke-dasharray:none;stroke-dashoffset:0" />
    <path
       inkscape:connector-curvature="0"
       id="path5052"
       d="m 903.41284,871.19062 c 0.13409,-0.12957 10.59744,-6.44888 23.25189,-14.04292 l 23.00808,-13.80733 98.69719,10e-4 98.6972,10e-4 -23.4048,14.04046 -23.4049,14.04045 -98.5442,10e-4 c -54.19936,6.8e-4 -98.43455,-0.10478 -98.30046,-0.23435 z"
       style="fill:#d0ed2f;fill-opacity:1;fill-rule:nonzero;stroke:#000000;stroke-width:0;stroke-miterlimit:4;stroke-opacity:1;stroke-dasharray:none;stroke-dashoffset:0" />
    <path
       inkscape:connector-curvature="0"
       id="path5054"
       d="m 1103.9386,870.92413 c 0.3057,-0.27615 10.7364,-6.59623 23.1792,-14.04463 l 22.6232,-13.54254 98.4546,0.14798 98.4547,0.14799 -23.1686,13.89664 -23.1685,13.89664 -98.4652,0 c -54.8279,0 -98.2189,-0.22251 -97.9094,-0.50208 z"
       style="fill:#d0ed2f;fill-opacity:1;fill-rule:nonzero;stroke:#000000;stroke-width:0;stroke-miterlimit:4;stroke-opacity:1;stroke-dasharray:none;stroke-dashoffset:0" />
    <path
       inkscape:connector-curvature="0"
       id="path5056"
       d="m 1326.2676,857.3798 23.4169,-14.04285 98.4357,0.14799 98.4358,0.14799 -23.1593,13.89664 -23.1593,13.89664 -98.6934,-0.002 -98.6933,-0.002 23.4169,-14.04284 z"
       style="fill:#d0ed2f;fill-opacity:1;fill-rule:nonzero;stroke:#000000;stroke-width:0;stroke-miterlimit:4;stroke-opacity:1;stroke-dasharray:none;stroke-dashoffset:0" />
    <path
       inkscape:connector-curvature="0"
       id="path5058"
       d="m 1503.343,871.20656 c 0.1341,-0.1208 10.5887,-6.44011 23.2324,-14.04292 l 22.9886,-13.82327 98.7167,10e-4 98.7167,10e-4 -23.4048,14.04046 -23.4049,14.04045 -98.5442,10e-4 c -54.1993,6.8e-4 -98.4345,-0.0976 -98.3005,-0.21841 z"
       style="fill:#d0ed2f;fill-opacity:1;fill-rule:nonzero;stroke:#000000;stroke-width:0;stroke-miterlimit:4;stroke-opacity:1;stroke-dasharray:none;stroke-dashoffset:0" />
    <path
       inkscape:connector-curvature="0"
       id="path5060"
       d="m 1412.1616,952.31928 87.622,-0.1501 0,-39.78637 0,-39.78636 -87.5732,0 c -48.1653,0 -87.4407,-0.13255 -87.2787,-0.29456 0.162,-0.16201 129.686,-0.30246 287.8311,-0.31211 251.7515,-0.0154 287.6779,-0.12435 288.6723,-0.87569 0.6247,-0.47197 1.4146,-0.84975 1.7554,-0.83952 0.3407,0.0102 0.1064,0.4067 -0.5208,0.88104 -1.006,0.76074 10.5858,0.84479 98.3004,0.7128 58.9838,-0.0888 99.8964,-0.36864 100.5607,-0.68792 0.807,-0.38783 1.0025,-0.3481 0.6995,0.14215 -0.3177,0.51401 9.2116,0.71824 38.9608,0.83503 l 39.3815,0.15459 -40.2271,0.1421 -40.2271,0.14209 0,39.78424 0,39.78424 40.2271,0.15441 c 22.1249,0.0849 -152.3803,0.15343 -387.7894,0.15223 -235.4091,-0.001 -388.5866,-0.0697 -340.3945,-0.15229 z m 287.5914,-40.08084 0.1503,-39.64199 -99.7673,0 -99.7673,0 0,39.78995 0,39.78996 99.6169,-0.14797 99.617,-0.14796 0.1504,-39.64199 z m 199.6686,0.14628 0,-39.78827 -99.4706,0 -99.4707,0 0,39.78827 0,39.78827 99.4707,0 99.4706,0 0,-39.78827 z m 200.1116,-0.002 0,-39.78995 -99.6169,0.14798 -99.617,0.14796 -0.1515,38.91059 c -0.083,21.40082 -0.026,39.23972 0.1279,39.64199 0.222,0.58116 20.7164,0.7314 99.7685,0.7314 l 99.489,0 0,-39.78995 0,-2e-5 z"
       style="fill:#d0ed2f;fill-opacity:1;fill-rule:nonzero;stroke:#000000;stroke-width:0;stroke-miterlimit:4;stroke-opacity:1;stroke-dasharray:none;stroke-dashoffset:0" />
    <path
       inkscape:connector-curvature="0"
       id="path5062"
       d="m 1703.4479,871.19732 c 0.1378,-0.13325 10.6042,-6.45558 23.2586,-14.04962 l 23.0081,-13.80733 98.6972,4.8e-4 98.6972,4.8e-4 -23.1123,13.89616 -23.1123,13.89615 -98.8435,0.15298 c -54.3639,0.0841 -98.7307,0.0439 -98.593,-0.0893 z"
       style="fill:#d0ed2f;fill-opacity:1;fill-rule:nonzero;stroke:#000000;stroke-width:0;stroke-miterlimit:4;stroke-opacity:1;stroke-dasharray:none;stroke-dashoffset:0" />
    <path
       inkscape:connector-curvature="0"
       id="path5064"
       d="m 1926.2612,857.39528 23.4169,-14.05833 98.442,0.14799 98.4419,0.14799 -22.9338,13.75036 -22.9339,13.75035 -98.925,0.15999 -98.9249,0.15998 23.4168,-14.05833 z"
       style="fill:#d0ed2f;fill-opacity:1;fill-rule:nonzero;stroke:#000000;stroke-width:0;stroke-miterlimit:4;stroke-opacity:1;stroke-dasharray:none;stroke-dashoffset:0" />
    <path
       inkscape:connector-curvature="0"
       id="path5066"
       d="m 2126.3608,857.38329 23.4049,-14.04046 98.593,0 98.593,0 -23.4049,14.04046 -23.4049,14.04045 -98.593,0 -98.5929,0 23.4048,-14.04045 z"
       style="fill:#d0ed2f;fill-opacity:1;fill-rule:nonzero;stroke:#000000;stroke-width:0;stroke-miterlimit:4;stroke-opacity:1;stroke-dasharray:none;stroke-dashoffset:0" />
    <path
       inkscape:connector-curvature="0"
       id="path5068"
       d="m 1902.3421,951.39649 -1.6091,-0.24375 0,-38.78181 0,-38.7818 7.1133,-0.38248 c 3.9124,-0.21037 48.5425,-0.38248 99.1781,-0.38248 l 92.0648,0 0,39.49571 0,39.49571 -97.569,-0.0877 c -53.663,-0.0482 -98.2931,-0.19736 -99.1781,-0.33143 z"
       style="fill:#000000;fill-opacity:0;fill-rule:nonzero;stroke:#000000;stroke-width:0;stroke-miterlimit:4;stroke-opacity:1;stroke-dasharray:none;stroke-dashoffset:0" />
    <path
       inkscape:connector-curvature="0"
       id="path5070"
       d="m 1902.3421,951.39649 -1.6091,-0.24375 0,-38.78181 0,-38.7818 7.1133,-0.38248 c 3.9124,-0.21037 48.5425,-0.38248 99.1781,-0.38248 l 92.0648,0 0,39.49571 0,39.49571 -97.569,-0.0877 c -53.663,-0.0482 -98.2931,-0.19736 -99.1781,-0.33143 z"
       style="fill:#000000;fill-opacity:0;fill-rule:nonzero;stroke:#000000;stroke-width:0;stroke-miterlimit:4;stroke-opacity:1;stroke-dasharray:none;stroke-dashoffset:0" />
    <path
       inkscape:connector-curvature="0"
       id="path5072"
       d="m 1902.3421,951.39649 -1.6091,-0.24375 0,-38.78181 0,-38.7818 7.1133,-0.38248 c 3.9124,-0.21037 48.5425,-0.38248 99.1781,-0.38248 l 92.0648,0 0,39.49571 0,39.49571 -97.569,-0.0877 c -53.663,-0.0482 -98.2931,-0.19736 -99.1781,-0.33143 z"
       style="fill:#000000;fill-opacity:0;fill-rule:nonzero;stroke:#000000;stroke-width:0;stroke-miterlimit:4;stroke-opacity:1;stroke-dasharray:none;stroke-dashoffset:0" />
    <path
       inkscape:connector-curvature="0"
       id="path5074"
       d="m 1902.3421,951.39649 -1.6091,-0.24375 0,-38.78181 0,-38.7818 7.1133,-0.38248 c 3.9124,-0.21037 48.5425,-0.38248 99.1781,-0.38248 l 92.0648,0 0,39.49571 0,39.49571 -97.569,-0.0877 c -53.663,-0.0482 -98.2931,-0.19736 -99.1781,-0.33143 z"
       style="fill:#42de31;fill-opacity:1;fill-rule:nonzero;stroke:#000000;stroke-width:0;stroke-miterlimit:4;stroke-opacity:1;stroke-dasharray:none;stroke-dashoffset:0" />
    <path
       inkscape:connector-curvature="0"
       id="path5076"
       d="m 701.3954,562.48723 0,-39.20315 99.17812,0 99.17812,0 0,39.20315 0,39.20315 -99.17812,0 -99.17812,0 0,-39.20315 z"
       style="fill:#42de31;fill-opacity:1;fill-rule:nonzero;stroke:#000000;stroke-width:0;stroke-miterlimit:4;stroke-opacity:1;stroke-dasharray:none;stroke-dashoffset:0" />
    <path
       inkscape:connector-curvature="0"
       id="path5080"
       d="m 2100.5395,912.30532 0,-39.20315 99.4706,0 99.4707,0 0,39.20315 0,39.20314 -99.4707,0 -99.4706,0 0,-39.20314 z"
       style="fill:#42de31;fill-opacity:1;fill-rule:nonzero;stroke:#000000;stroke-width:0;stroke-miterlimit:4;stroke-opacity:1;stroke-dasharray:none;stroke-dashoffset:0" />
    <path
       inkscape:connector-curvature="0"
       id="path5082"
       d="m 1700.9888,912.30532 0,-39.20315 99.1781,0 99.1782,0 0,39.20315 0,39.20314 -99.1782,0 -99.1781,0 0,-39.20314 z"
       style="fill:#42de31;fill-opacity:1;fill-rule:nonzero;stroke:#000000;stroke-width:0;stroke-miterlimit:4;stroke-opacity:1;stroke-dasharray:none;stroke-dashoffset:0" />
    <path
       inkscape:connector-curvature="0"
       id="path5084"
       d="m 1500.8772,912.30532 0,-39.20315 99.1782,0 99.1781,0 0,39.20315 0,39.20314 -99.1781,0 -99.1782,0 0,-39.20314 z"
       style="fill:#42de31;fill-opacity:1;fill-rule:nonzero;stroke:#000000;stroke-width:0;stroke-miterlimit:4;stroke-opacity:1;stroke-dasharray:none;stroke-dashoffset:0" />
    <path
       inkscape:connector-curvature="0"
       id="path5086"
       d="m 1300.4845,912.30532 0,-39.20315 99.4707,0 99.4707,0 0,39.20315 0,39.20314 -99.4707,0 -99.4707,0 0,-39.20314 z"
       style="fill:#42de31;fill-opacity:1;fill-rule:nonzero;stroke:#000000;stroke-width:0;stroke-miterlimit:4;stroke-opacity:1;stroke-dasharray:none;stroke-dashoffset:0" />
    <path
       inkscape:connector-curvature="0"
       id="path5088"
       d="m 1100.958,912.30532 0,-39.20315 99.1782,0 99.1781,0 0,39.20315 0,39.20314 -99.1781,0 -99.1782,0 0,-39.20314 z"
       style="fill:#42de31;fill-opacity:1;fill-rule:nonzero;stroke:#000000;stroke-width:0;stroke-miterlimit:4;stroke-opacity:1;stroke-dasharray:none;stroke-dashoffset:0" />
    <path
       inkscape:connector-curvature="0"
       id="path5090"
       d="m 901.43157,912.30532 0,-39.20315 98.88553,0 98.8856,0 0,39.20315 0,39.20314 -98.8856,0 -98.88553,0 0,-39.20314 z"
       style="fill:#42de31;fill-opacity:1;fill-rule:nonzero;stroke:#000000;stroke-width:0;stroke-miterlimit:4;stroke-opacity:1;stroke-dasharray:none;stroke-dashoffset:0" />
    <path
       inkscape:connector-curvature="0"
       id="path5092"
       d="m 701.34398,912.30532 0,-39.20315 99.17812,0 99.17812,0 0,39.20315 0,39.20314 -99.17812,0 -99.17812,0 0,-39.20314 z"
       style="fill:#42de31;fill-opacity:1;fill-rule:nonzero;stroke:#000000;stroke-width:0;stroke-miterlimit:4;stroke-opacity:1;stroke-dasharray:none;stroke-dashoffset:0" />
    <path
       inkscape:connector-curvature="0"
       id="path5094"
       d="m 501.23239,912.30532 0,-39.20315 99.17811,0 99.17812,0 0,39.20315 0,39.20314 -99.17812,0 -99.17811,0 0,-39.20314 z"
       style="fill:#42de31;fill-opacity:1;fill-rule:nonzero;stroke:#000000;stroke-width:0;stroke-miterlimit:4;stroke-opacity:1;stroke-dasharray:none;stroke-dashoffset:0" />
    <path
       inkscape:connector-curvature="0"
       id="path5096"
       d="m 301.39965,912.30532 0,-39.20315 99.17811,0 99.17812,0 0,39.20315 0,39.20314 -99.17812,0 -99.17811,0 0,-39.20314 z"
       style="fill:#42de31;fill-opacity:1;fill-rule:nonzero;stroke:#000000;stroke-width:0;stroke-miterlimit:4;stroke-opacity:1;stroke-dasharray:none;stroke-dashoffset:0" />
    <path
       inkscape:connector-curvature="0"
       id="path5098"
       d="m 100.66464,912.30532 0,-39.20315 99.47068,0 99.47068,0 0,39.20315 0,39.20314 -99.47068,0 -99.47068,0 0,-39.20314 z"
       style="fill:#42de31;fill-opacity:1;fill-rule:nonzero;stroke:#000000;stroke-width:0;stroke-miterlimit:4;stroke-opacity:1;stroke-dasharray:none;stroke-dashoffset:0" />
    <path
       inkscape:connector-curvature="0"
       id="path5100"
       d="m 101.83489,562.43695 0,-39.20315 98.88555,0 98.88556,0 0,39.20315 0,39.20315 -98.88556,0 -98.88555,0 0,-39.20315 z"
       style="fill:#42de31;fill-opacity:1;fill-rule:nonzero;stroke:#000000;stroke-width:0;stroke-miterlimit:4;stroke-opacity:1;stroke-dasharray:none;stroke-dashoffset:0" />
    <path
       inkscape:connector-curvature="0"
       id="path5102"
       d="m 301.36136,562.43695 0,-39.20315 99.17812,0 99.17812,0 0,39.20315 0,39.20315 -99.17812,0 -99.17812,0 0,-39.20315 z"
       style="fill:#42de31;fill-opacity:1;fill-rule:nonzero;stroke:#000000;stroke-width:0;stroke-miterlimit:4;stroke-opacity:1;stroke-dasharray:none;stroke-dashoffset:0" />
    <path
       inkscape:connector-curvature="0"
       id="path5104"
       d="m 501.43581,562.43695 0,-39.20315 99.17811,0 99.17812,0 0,39.20315 0,39.20315 -99.17812,0 -99.17811,0 0,-39.20315 z"
       style="fill:#42de31;fill-opacity:1;fill-rule:nonzero;stroke:#000000;stroke-width:0;stroke-miterlimit:4;stroke-opacity:1;stroke-dasharray:none;stroke-dashoffset:0" />
    <path
       inkscape:connector-curvature="0"
       id="path5106"
       d="m 901.25329,562.43695 0,-39.20315 99.17811,0 99.1781,0 0,39.20315 0,39.20315 -99.1781,0 -99.17811,0 0,-39.20315 z"
       style="fill:#42de31;fill-opacity:1;fill-rule:nonzero;stroke:#000000;stroke-width:0;stroke-miterlimit:4;stroke-opacity:1;stroke-dasharray:none;stroke-dashoffset:0" />
    <path
       inkscape:connector-curvature="0"
       id="path5108"
       d="m 1101.3649,562.43695 0,-39.20315 99.1781,0 99.1781,0 0,39.20315 0,39.20315 -99.1781,0 -99.1781,0 0,-39.20315 z"
       style="fill:#42de31;fill-opacity:1;fill-rule:nonzero;stroke:#000000;stroke-width:0;stroke-miterlimit:4;stroke-opacity:1;stroke-dasharray:none;stroke-dashoffset:0" />
    <path
       inkscape:connector-curvature="0"
       id="path5110"
       d="m 1301.4776,562.43695 0,-39.20315 99.1781,0 99.1781,0 0,39.20315 0,39.20315 -99.1781,0 -99.1781,0 0,-39.20315 z"
       style="fill:#42de31;fill-opacity:1;fill-rule:nonzero;stroke:#000000;stroke-width:0;stroke-miterlimit:4;stroke-opacity:1;stroke-dasharray:none;stroke-dashoffset:0" />
    <path
       inkscape:connector-curvature="0"
       id="path5112"
       d="m 1501.0041,561.45741 0,-39.10997 22.8928,-13.74602 c 12.591,-7.56031 23.5182,-14.08356 24.2825,-14.49611 l 1.3898,-0.75009 0,39.14089 0,39.14089 -23.7765,14.27014 c -13.0771,7.84858 -24.0042,14.35792 -24.2826,14.46519 -0.2815,0.10852 -0.506,-17.15551 -0.506,-38.91492 z"
       style="fill:#35b229;fill-opacity:1;fill-rule:nonzero;stroke:#000000;stroke-width:0;stroke-miterlimit:4;stroke-opacity:1;stroke-dasharray:none;stroke-dashoffset:0" />
    <path
       inkscape:connector-curvature="0"
       id="path5114"
       d="m 2300.6008,911.99683 0,-39.20464 23.9372,-14.36715 c 13.1655,-7.90193 24.0926,-14.36715 24.2825,-14.36715 0.19,0 0.3374,17.57559 0.3276,39.05686 l -0.018,39.05687 -22.018,13.16524 c -12.1098,7.24088 -23.029,13.7726 -24.2647,14.51493 l -2.2468,1.34968 0,-39.20464 z"
       style="fill:#35b229;fill-opacity:1;fill-rule:nonzero;stroke:#000000;stroke-width:0;stroke-miterlimit:4;stroke-opacity:1;stroke-dasharray:none;stroke-dashoffset:0" />
    <path
       style="fill:none;stroke:#000000;stroke-width:1px;stroke-linecap:butt;stroke-linejoin:miter;stroke-opacity:1"
       d="m 100,730 2200,0"
       id="path4514"
       inkscape:connector-curvature="0"
       transform="translate(0,222.36218)"
       sodipodi:nodetypes="cc" />
    <path
       style="fill:none;stroke:#000000;stroke-width:1px;stroke-linecap:butt;stroke-linejoin:miter;stroke-opacity:1"
       d="m 100,872.36218 2200,0"
       id="path4514-0"
       inkscape:connector-curvature="0"
       sodipodi:nodetypes="cc" />
    <path
       style="fill:none;stroke:#000000;stroke-width:1px;stroke-linecap:butt;stroke-linejoin:miter;stroke-opacity:1"
       d="m 150,842.36218 2200,0"
       id="path4514-0-7"
       inkscape:connector-curvature="0"
       sodipodi:nodetypes="cc" />
    <path
       style="fill:none;stroke:#000000;stroke-width:1px;stroke-linecap:butt;stroke-linejoin:miter;stroke-opacity:1"
       d="m 100,952.36218 0,-80"
       id="path4514-0-6"
       inkscape:connector-curvature="0"
       sodipodi:nodetypes="cc" />
    <path
       style="fill:none;stroke:#000000;stroke-width:1px;stroke-linecap:butt;stroke-linejoin:miter;stroke-opacity:1"
       d="m 300.5,951.86218 0,-80"
       id="path4514-0-6-3"
       inkscape:connector-curvature="0"
       sodipodi:nodetypes="cc" />
    <path
       style="fill:none;stroke:#000000;stroke-width:1px;stroke-linecap:butt;stroke-linejoin:miter;stroke-opacity:1"
       d="m 500.5,951.86218 0,-80"
       id="path4514-0-6-3-6"
       inkscape:connector-curvature="0"
       sodipodi:nodetypes="cc" />
    <path
       style="fill:none;stroke:#000000;stroke-width:1px;stroke-linecap:butt;stroke-linejoin:miter;stroke-opacity:1"
       d="m 700.5,951.86218 0,-80"
       id="path4514-0-6-3-1"
       inkscape:connector-curvature="0"
       sodipodi:nodetypes="cc" />
    <path
       style="fill:none;stroke:#000000;stroke-width:1px;stroke-linecap:butt;stroke-linejoin:miter;stroke-opacity:1"
       d="m 900.5,951.86218 0,-80"
       id="path4514-0-6-3-5"
       inkscape:connector-curvature="0"
       sodipodi:nodetypes="cc" />
    <path
       style="fill:none;stroke:#000000;stroke-width:1px;stroke-linecap:butt;stroke-linejoin:miter;stroke-opacity:1"
       d="m 1300,952.36218 0,-80"
       id="path4514-0-6-3-2"
       inkscape:connector-curvature="0"
       sodipodi:nodetypes="cc" />
    <path
       style="fill:none;stroke:#000000;stroke-width:1px;stroke-linecap:butt;stroke-linejoin:miter;stroke-opacity:1"
       d="m 1100,952.36218 0,-80"
       id="path4514-0-6-3-0"
       inkscape:connector-curvature="0"
       sodipodi:nodetypes="cc" />
    <path
       style="fill:none;stroke:#000000;stroke-width:1px;stroke-linecap:butt;stroke-linejoin:miter;stroke-opacity:1"
       d="m 1500,952.36218 0,-80"
       id="path4514-0-6-3-2-9"
       inkscape:connector-curvature="0"
       sodipodi:nodetypes="cc" />
    <path
       style="fill:none;stroke:#000000;stroke-width:1px;stroke-linecap:butt;stroke-linejoin:miter;stroke-opacity:1"
       d="m 1700,952.36218 0,-80"
       id="path4514-0-6-3-2-7"
       inkscape:connector-curvature="0"
       sodipodi:nodetypes="cc" />
    <path
       style="fill:none;stroke:#000000;stroke-width:1px;stroke-linecap:butt;stroke-linejoin:miter;stroke-opacity:1"
       d="m 1900,952.36218 0,-80"
       id="path4514-0-6-3-2-3"
       inkscape:connector-curvature="0"
       sodipodi:nodetypes="cc" />
    <path
       style="fill:none;stroke:#000000;stroke-width:1px;stroke-linecap:butt;stroke-linejoin:miter;stroke-opacity:1"
       d="m 2100,952.36218 0,-80"
       id="path4514-0-6-3-2-72"
       inkscape:connector-curvature="0"
       sodipodi:nodetypes="cc" />
    <path
       style="fill:none;stroke:#000000;stroke-width:1px;stroke-linecap:butt;stroke-linejoin:miter;stroke-opacity:1"
       d="m 2300,952.36218 0,-80"
       id="path4514-0-6-3-2-6"
       inkscape:connector-curvature="0"
       sodipodi:nodetypes="cc" />
    <path
       style="fill:none;stroke:#000000;stroke-width:1px;stroke-linecap:butt;stroke-linejoin:miter;stroke-opacity:1"
       d="m 100,872.36218 50,-30"
       id="path4514-0-6-3-2-0"
       inkscape:connector-curvature="0"
       sodipodi:nodetypes="cc" />
    <path
       style="fill:none;stroke:#000000;stroke-width:1px;stroke-linecap:butt;stroke-linejoin:miter;stroke-opacity:1"
       d="m 300,872.36218 50,-30"
       id="path4514-0-6-3-2-1"
       inkscape:connector-curvature="0"
       sodipodi:nodetypes="cc" />
    <path
       style="fill:none;stroke:#000000;stroke-width:1px;stroke-linecap:butt;stroke-linejoin:miter;stroke-opacity:1"
       d="m 500,872.36218 50,-30"
       id="path4514-0-6-3-2-65"
       inkscape:connector-curvature="0"
       sodipodi:nodetypes="cc" />
    <path
       style="fill:none;stroke:#000000;stroke-width:1px;stroke-linecap:butt;stroke-linejoin:miter;stroke-opacity:1"
       d="m 700,872.36218 50,-30"
       id="path4514-0-6-3-2-75"
       inkscape:connector-curvature="0"
       sodipodi:nodetypes="cc" />
    <path
       style="fill:none;stroke:#000000;stroke-width:1px;stroke-linecap:butt;stroke-linejoin:miter;stroke-opacity:1"
       d="m 900,872.36218 50,-30"
       id="path4514-0-6-3-2-75-4"
       inkscape:connector-curvature="0"
       sodipodi:nodetypes="cc" />
    <path
       style="fill:none;stroke:#000000;stroke-width:1px;stroke-linecap:butt;stroke-linejoin:miter;stroke-opacity:1"
       d="m 1100,872.36218 50,-30"
       id="path4514-0-6-3-2-75-4-1"
       inkscape:connector-curvature="0"
       sodipodi:nodetypes="cc" />
    <path
       style="fill:none;stroke:#000000;stroke-width:1px;stroke-linecap:butt;stroke-linejoin:miter;stroke-opacity:1"
       d="m 1300,872.36218 50,-30"
       id="path4514-0-6-3-2-75-4-2"
       inkscape:connector-curvature="0"
       sodipodi:nodetypes="cc" />
    <path
       style="fill:none;stroke:#000000;stroke-width:1px;stroke-linecap:butt;stroke-linejoin:miter;stroke-opacity:1"
       d="m 1500,872.36218 50,-30"
       id="path4514-0-6-3-2-75-4-2-0"
       inkscape:connector-curvature="0"
       sodipodi:nodetypes="cc" />
    <path
       style="fill:none;stroke:#000000;stroke-width:1px;stroke-linecap:butt;stroke-linejoin:miter;stroke-opacity:1"
       d="m 1700,872.36218 50,-30"
       id="path4514-0-6-3-2-75-4-2-01"
       inkscape:connector-curvature="0"
       sodipodi:nodetypes="cc" />
    <path
       style="fill:none;stroke:#000000;stroke-width:1px;stroke-linecap:butt;stroke-linejoin:miter;stroke-opacity:1"
       d="m 1900,872.36218 50,-30"
       id="path4514-0-6-3-2-75-4-2-4"
       inkscape:connector-curvature="0"
       sodipodi:nodetypes="cc" />
    <path
       style="fill:none;stroke:#000000;stroke-width:1px;stroke-linecap:butt;stroke-linejoin:miter;stroke-opacity:1"
       d="m 2100,872.36218 50,-30"
       id="path4514-0-6-3-2-75-4-2-6"
       inkscape:connector-curvature="0"
       sodipodi:nodetypes="cc" />
    <path
       style="fill:none;stroke:#000000;stroke-width:1px;stroke-linecap:butt;stroke-linejoin:miter;stroke-opacity:1"
       d="m 2300,872.36218 50,-30"
       id="path4514-0-6-3-2-75-4-2-07"
       inkscape:connector-curvature="0"
       sodipodi:nodetypes="cc" />
    <path
       style="fill:none;stroke:#000000;stroke-width:1px;stroke-linecap:butt;stroke-linejoin:miter;stroke-opacity:1"
       d="m 2350,922.36218 0,-80"
       id="path4514-0-6-3-2-75-4-2-1"
       inkscape:connector-curvature="0"
       sodipodi:nodetypes="cc" />
    <path
       style="fill:none;stroke:#000000;stroke-width:1px;stroke-linecap:butt;stroke-linejoin:miter;stroke-opacity:1"
       d="m 2300,952.36218 50,-30"
       id="path4514-0-6-3-2-75-4-2-07-7"
       inkscape:connector-curvature="0"
       sodipodi:nodetypes="cc" />
    <g
       id="g4891"
       transform="translate(144.41842,-11.65734)">
      <path
         sodipodi:nodetypes="cc"
         inkscape:connector-curvature="0"
         id="path4514-0-6-3-5-7"
         d="m -43.418421,613.01952 0,-80"
         style="fill:none;stroke:#000000;stroke-width:1px;stroke-linecap:butt;stroke-linejoin:miter;stroke-opacity:1" />
      <path
         sodipodi:nodetypes="cc"
         inkscape:connector-curvature="0"
         id="path4514-0-6-3-2-77"
         d="m 356.08158,613.51952 0,-80"
         style="fill:none;stroke:#000000;stroke-width:1px;stroke-linecap:butt;stroke-linejoin:miter;stroke-opacity:1" />
      <path
         sodipodi:nodetypes="cc"
         inkscape:connector-curvature="0"
         id="path4514-0-6-3-0-3"
         d="m 156.08158,613.51952 0,-80"
         style="fill:none;stroke:#000000;stroke-width:1px;stroke-linecap:butt;stroke-linejoin:miter;stroke-opacity:1" />
      <path
         sodipodi:nodetypes="cc"
         inkscape:connector-curvature="0"
         id="path4514-0-6-3-2-9-3"
         d="m 556.08158,613.51952 0,-80"
         style="fill:none;stroke:#000000;stroke-width:1px;stroke-linecap:butt;stroke-linejoin:miter;stroke-opacity:1" />
      <path
         sodipodi:nodetypes="cc"
         inkscape:connector-curvature="0"
         id="path4514-0-6-3-2-7-5"
         d="m 756.08158,613.51952 0,-80"
         style="fill:none;stroke:#000000;stroke-width:1px;stroke-linecap:butt;stroke-linejoin:miter;stroke-opacity:1" />
      <path
         sodipodi:nodetypes="cc"
         inkscape:connector-curvature="0"
         id="path4514-0-6-3-2-3-9"
         d="m 956.08158,613.51952 0,-80"
         style="fill:none;stroke:#000000;stroke-width:1px;stroke-linecap:butt;stroke-linejoin:miter;stroke-opacity:1" />
      <path
         sodipodi:nodetypes="cc"
         inkscape:connector-curvature="0"
         id="path4514-0-6-3-2-72-9"
         d="m 1156.0816,613.51952 0,-80"
         style="fill:none;stroke:#000000;stroke-width:1px;stroke-linecap:butt;stroke-linejoin:miter;stroke-opacity:1" />
      <path
         sodipodi:nodetypes="cc"
         inkscape:connector-curvature="0"
         id="path4514-0-6-3-2-6-8"
         d="m 1356.0816,613.51952 0,-80"
         style="fill:none;stroke:#000000;stroke-width:1px;stroke-linecap:butt;stroke-linejoin:miter;stroke-opacity:1" />
      <path
         sodipodi:nodetypes="cc"
         inkscape:connector-curvature="0"
         id="path4514-0-6-3-2-75-4-18"
         d="m -43.918421,533.51952 49.9999998,-30"
         style="fill:none;stroke:#000000;stroke-width:1px;stroke-linecap:butt;stroke-linejoin:miter;stroke-opacity:1" />
      <path
         sodipodi:nodetypes="cc"
         inkscape:connector-curvature="0"
         id="path4514-0-6-3-2-75-4-1-2"
         d="m 156.08158,533.51952 50,-30"
         style="fill:none;stroke:#000000;stroke-width:1px;stroke-linecap:butt;stroke-linejoin:miter;stroke-opacity:1" />
      <path
         sodipodi:nodetypes="cc"
         inkscape:connector-curvature="0"
         id="path4514-0-6-3-2-75-4-2-66"
         d="m 356.08158,533.51952 50,-30"
         style="fill:none;stroke:#000000;stroke-width:1px;stroke-linecap:butt;stroke-linejoin:miter;stroke-opacity:1" />
      <path
         sodipodi:nodetypes="cc"
         inkscape:connector-curvature="0"
         id="path4514-0-6-3-2-75-4-2-0-0"
         d="m 556.08158,533.51952 50,-30"
         style="fill:none;stroke:#000000;stroke-width:1px;stroke-linecap:butt;stroke-linejoin:miter;stroke-opacity:1" />
      <path
         sodipodi:nodetypes="cc"
         inkscape:connector-curvature="0"
         id="path4514-0-6-3-2-75-4-2-01-3"
         d="m 756.08158,533.51952 50,-30"
         style="fill:none;stroke:#000000;stroke-width:1px;stroke-linecap:butt;stroke-linejoin:miter;stroke-opacity:1" />
      <path
         sodipodi:nodetypes="cc"
         inkscape:connector-curvature="0"
         id="path4514-0-6-3-2-75-4-2-4-8"
         d="m 956.08158,533.51952 50.00002,-30"
         style="fill:none;stroke:#000000;stroke-width:1px;stroke-linecap:butt;stroke-linejoin:miter;stroke-opacity:1" />
      <path
         sodipodi:nodetypes="cc"
         inkscape:connector-curvature="0"
         id="path4514-0-6-3-2-75-4-2-6-0"
         d="m 1156.0816,533.51952 50,-30"
         style="fill:none;stroke:#000000;stroke-width:1px;stroke-linecap:butt;stroke-linejoin:miter;stroke-opacity:1" />
      <path
         sodipodi:nodetypes="cc"
         inkscape:connector-curvature="0"
         id="path4514-0-6-3-2-75-4-2-07-1"
         d="m 1356.0816,533.51952 50,-30"
         style="fill:none;stroke:#000000;stroke-width:1px;stroke-linecap:butt;stroke-linejoin:miter;stroke-opacity:1" />
      <path
         sodipodi:nodetypes="cc"
         inkscape:connector-curvature="0"
         id="path4514-0-6-3-2-75-4-2-1-2"
         d="m 1406.0816,583.51952 0,-80"
         style="fill:none;stroke:#000000;stroke-width:1px;stroke-linecap:butt;stroke-linejoin:miter;stroke-opacity:1" />
      <path
         sodipodi:nodetypes="cc"
         inkscape:connector-curvature="0"
         id="path4514-0-6-3-2-75-4-2-07-7-5"
         d="m 1356.0816,613.51952 50,-30"
         style="fill:none;stroke:#000000;stroke-width:1px;stroke-linecap:butt;stroke-linejoin:miter;stroke-opacity:1" />
    </g>
    <path
       style="fill:none;stroke:#000000;stroke-width:1px;stroke-linecap:butt;stroke-linejoin:miter;stroke-opacity:1"
       d="m 100,380 1400,0"
       id="path4913"
       inkscape:connector-curvature="0"
       transform="translate(0,222.36218)"
       sodipodi:nodetypes="cc" />
    <path
       style="fill:none;stroke:#000000;stroke-width:1px;stroke-linecap:butt;stroke-linejoin:miter;stroke-opacity:1"
       d="m 100,522.36218 1400,0"
       id="path4913-0"
       inkscape:connector-curvature="0"
       sodipodi:nodetypes="cc" />
    <path
       style="fill:none;stroke:#000000;stroke-width:1px;stroke-linecap:butt;stroke-linejoin:miter;stroke-opacity:1"
       d="m 150,492.36218 1400,0"
       id="path4913-9"
       inkscape:connector-curvature="0"
       sodipodi:nodetypes="cc" />
  </g>
</svg>
